<svg viewBox="0 0 1600 1200" xmlns="http://www.w3.org/2000/svg">
  <defs>
    <linearGradient id="bg" x1="0" y1="0" x2="0" y2="1">
      <stop offset="0%" stop-color="#F2EEE7"/><stop offset="60%" stop-color="#EAE4DA"/><stop offset="100%" stop-color="#DED7CB"/>
    </linearGradient>
    <radialGradient id="disc" cx="40%" cy="36%" r="72%">
      <stop offset="0%" stop-color="#25201a"/><stop offset="55%" stop-color="#161209"/><stop offset="100%" stop-color="#0b0906"/>
    </radialGradient>
    <linearGradient id="sheen" x1="0" y1="0" x2="1" y2="1">
      <stop offset="0%" stop-color="#fff" stop-opacity="0.12"/><stop offset="42%" stop-color="#fff" stop-opacity="0"/>
      <stop offset="60%" stop-color="#fff" stop-opacity="0"/><stop offset="100%" stop-color="#fff" stop-opacity="0.06"/>
    </linearGradient>
    <radialGradient id="lblg" cx="46%" cy="40%" r="60%">
      <stop offset="0%" stop-color="#E77BA8"/><stop offset="100%" stop-color="#B93A6E"/>
    </radialGradient>
    <linearGradient id="jacket" x1="0" y1="0" x2="0.3" y2="1">
      <stop offset="0%" stop-color="#F6F2EB"/><stop offset="100%" stop-color="#E7E0D4"/>
    </linearGradient>
    <radialGradient id="vig" cx="50%" cy="46%" r="70%">
      <stop offset="0%" stop-color="#000" stop-opacity="0"/><stop offset="100%" stop-color="#000" stop-opacity="0.06"/>
    </radialGradient>
  </defs>

  <rect width="1600" height="1200" fill="url(#bg)"/>
  <rect width="1600" height="1200" fill="url(#vig)"/>

  <!-- sombra del disco -->
  <ellipse cx="1080" cy="930" rx="258" ry="26" fill="#14120f" opacity="0.10"/>

  <!-- DISCO (detrás de la funda) -->
  <g>
    <circle cx="1080" cy="600" r="300" fill="url(#disc)"/>
    <circle cx="1080" cy="600" r="130.0" fill="none" stroke="#2a241d" stroke-width="1.1" opacity="0.5"/><circle cx="1080" cy="600" r="137.0" fill="none" stroke="#2a241d" stroke-width="1.1" opacity="0.25"/><circle cx="1080" cy="600" r="144.0" fill="none" stroke="#2a241d" stroke-width="1.1" opacity="0.5"/><circle cx="1080" cy="600" r="151.0" fill="none" stroke="#2a241d" stroke-width="1.1" opacity="0.25"/><circle cx="1080" cy="600" r="158.0" fill="none" stroke="#2a241d" stroke-width="1.1" opacity="0.5"/><circle cx="1080" cy="600" r="165.0" fill="none" stroke="#2a241d" stroke-width="1.1" opacity="0.25"/><circle cx="1080" cy="600" r="172.0" fill="none" stroke="#2a241d" stroke-width="1.1" opacity="0.5"/><circle cx="1080" cy="600" r="179.0" fill="none" stroke="#2a241d" stroke-width="1.1" opacity="0.25"/><circle cx="1080" cy="600" r="186.0" fill="none" stroke="#2a241d" stroke-width="1.1" opacity="0.5"/><circle cx="1080" cy="600" r="193.0" fill="none" stroke="#2a241d" stroke-width="1.1" opacity="0.25"/><circle cx="1080" cy="600" r="200.0" fill="none" stroke="#2a241d" stroke-width="1.1" opacity="0.5"/><circle cx="1080" cy="600" r="207.0" fill="none" stroke="#2a241d" stroke-width="1.1" opacity="0.25"/><circle cx="1080" cy="600" r="214.0" fill="none" stroke="#2a241d" stroke-width="1.1" opacity="0.5"/><circle cx="1080" cy="600" r="221.0" fill="none" stroke="#2a241d" stroke-width="1.1" opacity="0.25"/><circle cx="1080" cy="600" r="228.0" fill="none" stroke="#2a241d" stroke-width="1.1" opacity="0.5"/><circle cx="1080" cy="600" r="235.0" fill="none" stroke="#2a241d" stroke-width="1.1" opacity="0.25"/><circle cx="1080" cy="600" r="242.0" fill="none" stroke="#2a241d" stroke-width="1.1" opacity="0.5"/><circle cx="1080" cy="600" r="249.0" fill="none" stroke="#2a241d" stroke-width="1.1" opacity="0.25"/><circle cx="1080" cy="600" r="256.0" fill="none" stroke="#2a241d" stroke-width="1.1" opacity="0.5"/><circle cx="1080" cy="600" r="263.0" fill="none" stroke="#2a241d" stroke-width="1.1" opacity="0.25"/><circle cx="1080" cy="600" r="270.0" fill="none" stroke="#2a241d" stroke-width="1.1" opacity="0.5"/><circle cx="1080" cy="600" r="277.0" fill="none" stroke="#2a241d" stroke-width="1.1" opacity="0.25"/><circle cx="1080" cy="600" r="284.0" fill="none" stroke="#2a241d" stroke-width="1.1" opacity="0.5"/><circle cx="1080" cy="600" r="291.0" fill="none" stroke="#2a241d" stroke-width="1.1" opacity="0.25"/>
    <circle cx="1080" cy="600" r="300" fill="url(#sheen)"/>
    <circle cx="1080" cy="600" r="114" fill="none" stroke="#0b0906" stroke-width="4"/>
    <circle cx="1080" cy="600" r="108" fill="url(#lblg)"/>
    <circle cx="1080" cy="600" r="108" fill="none" stroke="#000" stroke-opacity="0.25" stroke-width="1.5"/>
    <text x="1080" y="584" font-family="'IBM Plex Mono',monospace" font-size="15" letter-spacing="3" fill="#EAE6DF" text-anchor="middle" opacity="0.9">STUDIO AMR</text>
    <text x="1080" y="612" font-family="Georgia,serif" font-weight="bold" font-size="26" fill="#EAE6DF" text-anchor="middle">HECHIZO</text>
    <text x="1080" y="634" font-family="'IBM Plex Mono',monospace" font-size="12" letter-spacing="2" fill="#EAE6DF" text-anchor="middle" opacity="0.8">45 RPM</text>
    <circle cx="1080" cy="600" r="7" fill="#EAE6DF"/>
  </g>

  <!-- sombra de la funda -->
  <ellipse cx="550.0" cy="954" rx="322" ry="30" fill="#14120f" opacity="0.12"/>

  <!-- FUNDA impresa (jacket) -->
  <g transform="rotate(-4 560.0 610.0)">
    <rect x="250" y="300" width="620" height="620" rx="8" fill="url(#jacket)" stroke="#141210" stroke-opacity="0.12" stroke-width="2"/>
    <rect x="250" y="300" width="620" height="620" rx="8" fill="none" stroke="#141210" stroke-opacity="0.06" stroke-width="10" transform="translate(0,0)"/>
    <!-- borde interior tipo apertura de funda a la derecha -->
    <line x1="868" y1="318" x2="868" y2="902" stroke="#141210" stroke-opacity="0.10" stroke-width="3"/>
    <text x="288" y="366" font-family="'IBM Plex Mono',monospace" font-size="20" letter-spacing="6" fill="#6E675E">STUDIO AMR</text>
    <text x="832" y="366" font-family="'IBM Plex Mono',monospace" font-size="20" letter-spacing="6" fill="#B93A6E" text-anchor="end">MMXXVI</text>
    <!-- marca / dibujo -->
    <g transform="translate(440.0 420) scale(1.0)"><path d="M104 44 L136 44 L136 78 C158 90 168 110 168 130 C168 154 148 166 120 166 C92 166 72 154 72 130 C72 110 82 90 104 78 Z" fill="none" stroke="#141210" stroke-width="7"/><path d="M78 126 C80 148 98 158 120 158 C142 158 160 148 162 126 Z" fill="#B93A6E"/><path d="M120 104 C115 97 105 97 105 106 C105 113 120 121 120 121 C120 121 135 113 135 106 C135 97 125 97 120 104 Z" fill="#E77BA8"/><rect x="100" y="32" width="40" height="12" rx="4" fill="#141210"/><circle cx="90" cy="116" r="3.5" fill="#E77BA8"/><circle cx="150" cy="112" r="3" fill="#E77BA8"/></g>
    <text x="560.0" y="824" font-family="Georgia,serif" font-weight="bold" font-size="56" letter-spacing="1" fill="#141210" text-anchor="middle">HECHIZO</text>
    <text x="560.0" y="862" font-family="'IBM Plex Mono',monospace" font-size="15" letter-spacing="4" fill="#B93A6E" text-anchor="middle">HECHIZO DE ELLA · 0→100 · 38 MIN</text>
    <text x="560.0" y="888" font-family="'IBM Plex Mono',monospace" font-size="12" letter-spacing="3" fill="#6E675E" text-anchor="middle">EDITION OF 12 · NUMBERED BY HAND</text>
  </g>

  <!-- etiqueta de número escrita a mano (kraft) -->
  <g transform="rotate(6 1330 980)">
    <rect x="1180" y="930" width="300" height="120" rx="4" fill="#DcCfb6" stroke="#141210" stroke-opacity="0.18" stroke-width="1.5"/>
    <circle cx="1205" cy="990" r="7" fill="none" stroke="#141210" stroke-opacity="0.35" stroke-width="2"/>
    <text x="1250" y="978" font-family="'IBM Plex Mono',monospace" font-size="16" letter-spacing="3" fill="#6E675E">HAND-NUMBERED</text>
    <text x="1250" y="1022" font-family="Georgia,serif" font-weight="bold" font-size="34" fill="#141210">No 01 / 12</text>
  </g>
</svg>