<svg viewBox="0 0 1600 1200" xmlns="http://www.w3.org/2000/svg">
  <defs>
    <linearGradient id="bg" x1="0" y1="0" x2="0" y2="1">
      <stop offset="0%" stop-color="#F2EEE7"/><stop offset="60%" stop-color="#EAE4DA"/><stop offset="100%" stop-color="#DED7CB"/>
    </linearGradient>
    <radialGradient id="disc" cx="40%" cy="36%" r="72%">
      <stop offset="0%" stop-color="#241016"/><stop offset="55%" stop-color="#16090d"/><stop offset="100%" stop-color="#0b0507"/>
    </radialGradient>
    <linearGradient id="sheen" x1="0" y1="0" x2="1" y2="1">
      <stop offset="0%" stop-color="#fff" stop-opacity="0.12"/><stop offset="42%" stop-color="#fff" stop-opacity="0"/>
      <stop offset="60%" stop-color="#fff" stop-opacity="0"/><stop offset="100%" stop-color="#fff" stop-opacity="0.06"/>
    </linearGradient>
    <radialGradient id="lblg" cx="46%" cy="40%" r="60%">
      <stop offset="0%" stop-color="#FF7D9C"/><stop offset="100%" stop-color="#E0335A"/>
    </radialGradient>
    <linearGradient id="jacket" x1="0" y1="0" x2="0.3" y2="1">
      <stop offset="0%" stop-color="#F6F2EB"/><stop offset="100%" stop-color="#E7E0D4"/>
    </linearGradient>
    <radialGradient id="vig" cx="50%" cy="46%" r="70%">
      <stop offset="0%" stop-color="#000" stop-opacity="0"/><stop offset="100%" stop-color="#000" stop-opacity="0.06"/>
    </radialGradient>
  </defs>

  <rect width="1600" height="1200" fill="url(#bg)"/>
  <rect width="1600" height="1200" fill="url(#vig)"/>
  <ellipse cx="1080" cy="930" rx="258" ry="26" fill="#14120f" opacity="0.10"/>

  <!-- DISCO -->
  <g>
    <circle cx="1080" cy="600" r="300" fill="url(#disc)"/>
    <circle cx="1080" cy="600" r="137.0" fill="none" stroke="#301820" stroke-width="1.1" opacity="0.4"/><circle cx="1080" cy="600" r="151.0" fill="none" stroke="#301820" stroke-width="1.1" opacity="0.4"/><circle cx="1080" cy="600" r="165.0" fill="none" stroke="#301820" stroke-width="1.1" opacity="0.4"/><circle cx="1080" cy="600" r="179.0" fill="none" stroke="#301820" stroke-width="1.1" opacity="0.4"/><circle cx="1080" cy="600" r="193.0" fill="none" stroke="#301820" stroke-width="1.1" opacity="0.4"/><circle cx="1080" cy="600" r="207.0" fill="none" stroke="#301820" stroke-width="1.1" opacity="0.4"/><circle cx="1080" cy="600" r="221.0" fill="none" stroke="#301820" stroke-width="1.1" opacity="0.4"/><circle cx="1080" cy="600" r="235.0" fill="none" stroke="#301820" stroke-width="1.1" opacity="0.4"/><circle cx="1080" cy="600" r="249.0" fill="none" stroke="#301820" stroke-width="1.1" opacity="0.4"/><circle cx="1080" cy="600" r="263.0" fill="none" stroke="#301820" stroke-width="1.1" opacity="0.4"/><circle cx="1080" cy="600" r="277.0" fill="none" stroke="#301820" stroke-width="1.1" opacity="0.4"/><circle cx="1080" cy="600" r="291.0" fill="none" stroke="#301820" stroke-width="1.1" opacity="0.4"/>
    <circle cx="1080" cy="600" r="300" fill="url(#sheen)"/>
    <circle cx="1080" cy="600" r="114" fill="none" stroke="#0b0507" stroke-width="4"/>
    <circle cx="1080" cy="600" r="108" fill="url(#lblg)"/>
    <circle cx="1080" cy="600" r="108" fill="none" stroke="#000" stroke-opacity="0.25" stroke-width="1.5"/>
    <text x="1080" y="584" font-family="'IBM Plex Mono',monospace" font-size="15" letter-spacing="3" fill="#1a0c10" text-anchor="middle" opacity="0.9">STUDIO AMR</text>
    <text x="1080" y="612" font-family="Georgia,serif" font-weight="bold" font-size="24" fill="#1a0c10" text-anchor="middle">ORÁCULO</text>
    <text x="1080" y="634" font-family="'IBM Plex Mono',monospace" font-size="12" letter-spacing="2" fill="#1a0c10" text-anchor="middle" opacity="0.8">45 RPM</text>
    <circle cx="1080" cy="600" r="7" fill="#1a0c10"/>
  </g>

  <ellipse cx="550.0" cy="954" rx="322" ry="30" fill="#14120f" opacity="0.12"/>

  <!-- FUNDA -->
  <g transform="rotate(-4 560.0 610.0)">
    <rect x="250" y="300" width="620" height="620" rx="8" fill="url(#jacket)" stroke="#141210" stroke-opacity="0.12" stroke-width="2"/>
    <rect x="250" y="300" width="620" height="620" rx="8" fill="none" stroke="#141210" stroke-opacity="0.06" stroke-width="10"/>
    <line x1="868" y1="318" x2="868" y2="902" stroke="#141210" stroke-opacity="0.10" stroke-width="3"/>
    <text x="288" y="366" font-family="'IBM Plex Mono',monospace" font-size="20" letter-spacing="6" fill="#6E675E">STUDIO AMR</text>
    <text x="832" y="366" font-family="'IBM Plex Mono',monospace" font-size="20" letter-spacing="6" fill="#C41F45" text-anchor="end">MMXXVI</text>
    <!-- marca: ojo-oráculo con corazón -->
    <g transform="translate(462 432)">
      <path d="M0 20 Q98 -40 196 20 Q98 80 0 20 Z" fill="none" stroke="#141210" stroke-width="8" stroke-linejoin="round"/>
      <path d="M98 2 c-15 -20 -46 -3 -33 20 c7 13 33 30 33 30 c0 0 26 -17 33 -30 c13 -23 -18 -40 -33 -20 Z" fill="#E0335A"/>
    </g>
    <text x="560.0" y="824" font-family="Georgia,serif" font-weight="bold" font-size="54" letter-spacing="1" fill="#141210" text-anchor="middle">ORÁCULO</text>
    <text x="560.0" y="862" font-family="'IBM Plex Mono',monospace" font-size="14" letter-spacing="4" fill="#C41F45" text-anchor="middle">MELODIC TECHNO · SCI-FI · 0→100 · 21 MIN</text>
    <text x="560.0" y="888" font-family="'IBM Plex Mono',monospace" font-size="12" letter-spacing="3" fill="#6E675E" text-anchor="middle">EDITION OF 12 · NUMBERED BY HAND</text>
  </g>

  <g transform="rotate(6 1330 980)">
    <rect x="1180" y="930" width="300" height="120" rx="4" fill="#DcCfb6" stroke="#141210" stroke-opacity="0.18" stroke-width="1.5"/>
    <circle cx="1205" cy="990" r="7" fill="none" stroke="#141210" stroke-opacity="0.35" stroke-width="2"/>
    <text x="1250" y="978" font-family="'IBM Plex Mono',monospace" font-size="16" letter-spacing="3" fill="#6E675E">HAND-NUMBERED</text>
    <text x="1250" y="1022" font-family="Georgia,serif" font-weight="bold" font-size="34" fill="#141210">No 01 / 12</text>
  </g>
</svg>
