<svg viewBox="0 0 240 240" xmlns="http://www.w3.org/2000/svg">
  <defs><radialGradient id="gba" cx="50%" cy="50%" r="50%">
    <stop offset="0%" stop-color="#22D96C" stop-opacity="0.42"/>
    <stop offset="55%" stop-color="#22D96C" stop-opacity="0.14"/>
    <stop offset="100%" stop-color="#22D96C" stop-opacity="0"/>
  </radialGradient></defs>
  <circle cx="120" cy="122" r="58" fill="url(#gba)"/>
  <!-- tambor (surdo) visto de frente: parche + aro grueso -->
  <ellipse cx="120" cy="122" rx="44" ry="44" fill="none" stroke="#22D96C" stroke-width="12"/>
  <ellipse cx="120" cy="122" rx="27" ry="27" fill="none" stroke="#22D96C" stroke-width="4" opacity="0.6"/>
  <!-- tensores del aro -->
  <line x1="120" y1="66" x2="120" y2="80" stroke="#141210" stroke-width="4"/>
  <line x1="120" y1="164" x2="120" y2="178" stroke="#141210" stroke-width="4"/>
  <line x1="64" y1="122" x2="78" y2="122" stroke="#141210" stroke-width="4"/>
  <line x1="162" y1="122" x2="176" y2="122" stroke="#141210" stroke-width="4"/>
  <!-- ondas de sonido / batuque que sale -->
  <path d="M186 96 Q206 122 186 148" fill="none" stroke="#7DEEA9" stroke-width="3.5" stroke-linecap="round" opacity="0.85"/>
  <path d="M198 84 Q226 122 198 160" fill="none" stroke="#7DEEA9" stroke-width="2.6" stroke-linecap="round" opacity="0.5"/>
  <path d="M54 96 Q34 122 54 148" fill="none" stroke="#7DEEA9" stroke-width="3.5" stroke-linecap="round" opacity="0.85"/>
  <path d="M42 84 Q14 122 42 160" fill="none" stroke="#7DEEA9" stroke-width="2.6" stroke-linecap="round" opacity="0.5"/>
  <!-- el golpe: baqueta + punto de impacto -->
  <line x1="120" y1="122" x2="150" y2="150" stroke="#E8E6E0" stroke-width="5" stroke-linecap="round"/>
  <circle cx="120" cy="122" r="6" fill="#E8E6E0"/>
  <circle cx="102" cy="110" r="3" fill="#141210"/><circle cx="136" cy="132" r="3.2" fill="#141210"/>
  <rect x="46" y="196" width="148" height="5" rx="2.5" fill="#141210"/>
</svg>
