<svg viewBox="0 0 240 240" xmlns="http://www.w3.org/2000/svg">
  <defs><radialGradient id="gpl" cx="50%" cy="50%" r="50%">
    <stop offset="0%" stop-color="#C4756B" stop-opacity="0.42"/>
    <stop offset="55%" stop-color="#C4756B" stop-opacity="0.14"/>
    <stop offset="100%" stop-color="#C4756B" stop-opacity="0"/>
  </radialGradient></defs>
  <circle cx="120" cy="140" r="52" fill="url(#gpl)"/>

  <path d="M60 176 L60 128 A18 18 0 0 1 96 128 L96 176" fill="none" stroke="#C4756B" stroke-width="9"/>
  <path d="M102 176 L102 128 A18 18 0 0 1 138 128 L138 176" fill="none" stroke="#C4756B" stroke-width="9"/>
  <path d="M144 176 L144 128 A18 18 0 0 1 180 128 L180 176" fill="none" stroke="#C4756B" stroke-width="9"/>
  <path d="M54 106 L186 106" stroke="#141210" stroke-width="6" stroke-linecap="round"/>
  <circle cx="120" cy="156" r="4" fill="#141210"/>
  <rect x="46" y="176" width="148" height="5" rx="2.5" fill="#141210"/>
  <circle cx="64" cy="86" r="2.2" fill="#141210"/><circle cx="178" cy="90" r="2.4" fill="#141210"/>

</svg>