<svg viewBox="0 0 240 240" xmlns="http://www.w3.org/2000/svg">
  <defs><radialGradient id="gne" cx="50%" cy="50%" r="50%">
    <stop offset="0%" stop-color="#12B3AE" stop-opacity="0.42"/>
    <stop offset="55%" stop-color="#12B3AE" stop-opacity="0.14"/>
    <stop offset="100%" stop-color="#12B3AE" stop-opacity="0"/>
  </radialGradient></defs>
  <circle cx="120" cy="130" r="52" fill="url(#gne)"/>

  <path d="M120 92 C100 92 92 112 92 126 C92 140 104 148 120 148 C136 148 148 140 148 126 C148 112 140 92 120 92 Z" fill="#FF7A6B"/>
  <path d="M120 148 L120 100" stroke="#141210" stroke-width="4"/>
  <circle cx="120" cy="86" r="7" fill="#12B3AE"/>
  <path d="M120 158 C116 164 116 170 120 174 C124 170 124 164 120 158 Z" fill="#6FE0D8"/>
  <path d="M92 130 C82 130 78 138 78 146 M148 130 C158 130 162 138 162 146" fill="none" stroke="#12B3AE" stroke-width="4" stroke-linecap="round"/>
  <rect x="46" y="182" width="148" height="5" rx="2.5" fill="#141210"/>
  <circle cx="64" cy="100" r="2.2" fill="#141210"/><circle cx="178" cy="118" r="2.4" fill="#141210"/>

</svg>