<svg viewBox="0 0 240 240" xmlns="http://www.w3.org/2000/svg">
  <defs><radialGradient id="gba" cx="50%" cy="50%" r="50%">
    <stop offset="0%" stop-color="#C4756B" stop-opacity="0.42"/>
    <stop offset="55%" stop-color="#C4756B" stop-opacity="0.14"/>
    <stop offset="100%" stop-color="#C4756B" stop-opacity="0"/>
  </radialGradient></defs>
  <circle cx="120" cy="130" r="52" fill="url(#gba)"/>

  <ellipse cx="120" cy="206" rx="46" ry="7" fill="#141210" opacity="0.05"/>
  <circle cx="103" cy="84" r="11" fill="#141210"/>
  <path d="M103 96 C99 124 100 152 96 186 L110 186 C112 156 112 128 112 108 Z" fill="#141210"/>
  <circle cx="140" cy="88" r="10" fill="#141210"/>
  <path d="M140 99 C144 126 142 154 148 186 L131 186 C130 156 130 130 130 110 Z" fill="#141210"/>
  <path d="M112 118 C120 112 124 112 130 118" fill="none" stroke="#C4756B" stroke-width="5" stroke-linecap="round"/>
  <circle cx="121" cy="112" r="4.5" fill="#C4756B"/>
  <path d="M74 96 L66 88 M170 100 L178 92" stroke="#E2A796" stroke-width="3.5" stroke-linecap="round"/>

</svg>