<svg viewBox="0 0 240 240" xmlns="http://www.w3.org/2000/svg">
  <defs><radialGradient id="gct" cx="50%" cy="50%" r="50%">
    <stop offset="0%" stop-color="#2E9C7C" stop-opacity="0.42"/>
    <stop offset="55%" stop-color="#2E9C7C" stop-opacity="0.14"/>
    <stop offset="100%" stop-color="#2E9C7C" stop-opacity="0"/>
  </radialGradient></defs>
  <ellipse cx="120" cy="212" rx="52" ry="8" fill="#14120f" opacity="0.05"/>
  <circle cx="120" cy="120" r="52" fill="url(#gct)"/>
  <path d="M108 208 L108 78 C108 66 132 66 132 78 L132 208 Z" fill="#141210"/>
  <path d="M108 128 L84 128 C74 128 74 116 74 108 L74 86" fill="none" stroke="#141210" stroke-width="14" stroke-linecap="round" stroke-linejoin="round"/>
  <path d="M132 150 L158 150 C168 150 168 138 168 130 L168 104" fill="none" stroke="#141210" stroke-width="14" stroke-linecap="round" stroke-linejoin="round"/>
  <g stroke="#2E9C7C" stroke-width="2.6" stroke-linecap="round">
    <path d="M120 92 L120 104"/><path d="M120 122 L120 134"/><path d="M120 152 L120 164"/>
    <path d="M74 100 L74 92"/><path d="M168 118 L168 110"/>
  </g>
  <rect x="70" y="204" width="100" height="6" rx="3" fill="#2E9C7C"/>
  <circle cx="62" cy="150" r="2.2" fill="#141210"/><circle cx="184" cy="176" r="2.4" fill="#141210"/>
</svg>
