<svg viewBox="0 0 240 240" xmlns="http://www.w3.org/2000/svg">
  <defs><radialGradient id="gnn" cx="50%" cy="50%" r="50%">
    <stop offset="0%" stop-color="#2E9C7C" stop-opacity="0.42"/>
    <stop offset="55%" stop-color="#2E9C7C" stop-opacity="0.14"/>
    <stop offset="100%" stop-color="#2E9C7C" stop-opacity="0"/>
  </radialGradient></defs>
  <ellipse cx="120" cy="212" rx="50" ry="8" fill="#14120f" opacity="0.05"/>
  <circle cx="120" cy="118" r="58" fill="url(#gnn)"/>
  <path d="M72 168 C72 120 96 92 120 92 C144 92 168 120 168 168" fill="none" stroke="#2E9C7C" stroke-width="11" stroke-linecap="round"/>
  <path d="M72 168 C72 120 96 92 120 92 C144 92 168 120 168 168" fill="none" stroke="#5BC4A5" stroke-width="4" stroke-linecap="round"/>
  <path d="M72 168 L72 190 M168 168 L168 190" stroke="#141210" stroke-width="7" stroke-linecap="round"/>
  <rect x="60" y="190" width="120" height="10" rx="4" fill="#141210"/>
  <g stroke="#2E9C7C" stroke-width="2.4" stroke-linecap="round" opacity="0.6">
    <path d="M120 58 L120 70"/><path d="M78 70 L86 80"/><path d="M162 70 L154 80"/>
  </g>
  <circle cx="58" cy="120" r="2.2" fill="#141210"/><circle cx="184" cy="140" r="2.4" fill="#141210"/>
</svg>
