<svg viewBox="0 0 240 240" xmlns="http://www.w3.org/2000/svg">
  <defs><radialGradient id="gho5" cx="50%" cy="50%" r="50%">
    <stop offset="0%" stop-color="#B93A6E" stop-opacity="0.42"/>
    <stop offset="55%" stop-color="#B93A6E" stop-opacity="0.14"/>
    <stop offset="100%" stop-color="#B93A6E" stop-opacity="0"/>
  </radialGradient></defs>
  <circle cx="120" cy="116" r="52" fill="url(#gho5)"/>

  <path d="M136 64 A40 40 0 1 0 136 136 A32 32 0 1 1 136 64 Z" fill="#B93A6E"/>
  <path d="M76 80 L79 88 L87 91 L79 94 L76 102 L73 94 L65 91 L73 88 Z" fill="#E77BA8"/>
  <path d="M170 110 L172 116 L178 118 L172 120 L170 126 L168 120 L162 118 L168 116 Z" fill="#E77BA8"/>
  <path d="M96 142 L98 147 L103 149 L98 151 L96 156 L94 151 L89 149 L94 147 Z" fill="#B93A6E"/>
  <rect x="46" y="176" width="148" height="5" rx="2.5" fill="#141210"/>
  <circle cx="60" cy="120" r="2.2" fill="#141210"/><circle cx="182" cy="150" r="2.4" fill="#141210"/>

</svg>