<svg viewBox="0 0 240 240" xmlns="http://www.w3.org/2000/svg">
  <defs><radialGradient id="gho4" cx="50%" cy="50%" r="50%">
    <stop offset="0%" stop-color="#B93A6E" stop-opacity="0.42"/>
    <stop offset="55%" stop-color="#B93A6E" stop-opacity="0.14"/>
    <stop offset="100%" stop-color="#B93A6E" stop-opacity="0"/>
  </radialGradient></defs>
  <circle cx="120" cy="120" r="52" fill="url(#gho4)"/>

  <path d="M120 124 A8 8 0 0 1 128 132 A16 16 0 0 1 112 148 A28 28 0 0 1 84 120 A42 42 0 0 1 126 78 A56 56 0 0 1 182 134" fill="none" stroke="#B93A6E" stroke-width="8" stroke-linecap="round"/>
  <circle cx="120" cy="124" r="4.5" fill="#141210"/>
  <circle cx="70" cy="88" r="2.6" fill="#E77BA8"/><circle cx="176" cy="86" r="2.6" fill="#E77BA8"/>
  <rect x="46" y="176" width="148" height="5" rx="2.5" fill="#141210"/>
  <circle cx="60" cy="150" r="2.2" fill="#141210"/><circle cx="184" cy="158" r="2.4" fill="#141210"/>

</svg>