<svg viewBox="0 0 240 240" xmlns="http://www.w3.org/2000/svg">
  <defs><radialGradient id="gso" cx="50%" cy="50%" r="50%">
    <stop offset="0%" stop-color="#6E5BAE" stop-opacity="0.34"/>
    <stop offset="55%" stop-color="#6E5BAE" stop-opacity="0.12"/>
    <stop offset="100%" stop-color="#6E5BAE" stop-opacity="0"/>
  </radialGradient></defs>
  <circle cx="120" cy="106" r="56" fill="url(#gso)"/>

  <!-- SOMBRA: la copa tapa el sol y proyecta sombra en el suelo.
       El sujeto del dibujo es la SOMBRA, no el árbol. -->
  <circle cx="168" cy="56" r="13" fill="none" stroke="#9D8BD6" stroke-width="3" opacity="0.7"/>
  <g stroke="#9D8BD6" stroke-width="2.4" stroke-linecap="round" opacity="0.55">
    <line x1="168" y1="34" x2="168" y2="40"/><line x1="186" y1="46" x2="191" y2="43"/>
    <line x1="150" y1="46" x2="145" y2="43"/><line x1="186" y1="66" x2="191" y2="69"/>
  </g>

  <!-- la copa, masa densa -->
  <path d="M120 42 C 78 42 58 70 62 92 C 66 112 92 122 120 122
           C 148 122 174 112 178 92 C 182 70 162 42 120 42 Z" fill="#6E5BAE"/>
  <path d="M84 74 C 96 66 110 64 122 68" fill="none" stroke="#9D8BD6" stroke-width="3"
        stroke-linecap="round" opacity="0.6"/>

  <!-- el tronco -->
  <path d="M120 122 L120 156" stroke="#463A73" stroke-width="8" stroke-linecap="round"/>

  <!-- LA SOMBRA en el suelo — es el sujeto del dibujo, tiene que pesar -->
  <ellipse cx="130" cy="162" rx="78" ry="19" fill="#463A73" opacity="0.35"/>
  <ellipse cx="128" cy="160" rx="66" ry="15" fill="#221C3B"/>
  <ellipse cx="128" cy="160" rx="66" ry="15" fill="none" stroke="#9D8BD6" stroke-width="1.2" opacity="0.28"/>

  <rect x="46" y="176" width="148" height="5" rx="2.5" fill="#141210"/>
  <circle cx="56" cy="128" r="2.2" fill="#141210"/><circle cx="196" cy="132" r="2.4" fill="#141210"/>
</svg>
