<svg viewBox="0 0 240 240" xmlns="http://www.w3.org/2000/svg">
  <defs><radialGradient id="gma" cx="50%" cy="50%" r="50%">
    <stop offset="0%" stop-color="#6E5BAE" stop-opacity="0.44"/><stop offset="55%" stop-color="#6E5BAE" stop-opacity="0.15"/>
    <stop offset="100%" stop-color="#6E5BAE" stop-opacity="0"/></radialGradient></defs>
  <circle cx="120" cy="118" r="58" fill="url(#gma)"/>
  <rect x="52" y="82" width="136" height="76" rx="7" fill="none" stroke="#6E5BAE" stroke-width="10"/>
  <g fill="#9D8BD6"><rect x="62" y="130" width="9" height="12" rx="2"/><rect x="77" y="130" width="9" height="12" rx="2"/><rect x="92" y="130" width="9" height="12" rx="2"/><rect x="107" y="130" width="9" height="12" rx="2"/><rect x="122" y="130" width="9" height="12" rx="2"/><rect x="137" y="130" width="9" height="12" rx="2"/><rect x="152" y="130" width="9" height="12" rx="2"/><rect x="167" y="130" width="9" height="12" rx="2"/></g>
  <circle cx="74" cy="104" r="8" fill="none" stroke="#141210" stroke-width="4"/>
  <circle cx="102" cy="104" r="8" fill="none" stroke="#141210" stroke-width="4"/>
  <line x1="128" y1="100" x2="176" y2="100" stroke="#141210" stroke-width="4" stroke-linecap="round"/>
  <line x1="128" y1="112" x2="164" y2="112" stroke="#141210" stroke-width="4" stroke-linecap="round"/>
  <rect x="46" y="192" width="148" height="5" rx="2.5" fill="#141210"/>
</svg>
