<svg viewBox="0 0 240 240" xmlns="http://www.w3.org/2000/svg"><defs><radialGradient id="mcg" cx="50%" cy="42%" r="52%"><stop offset="0%" stop-color="#5ED4DE" stop-opacity="0.42"/><stop offset="55%" stop-color="#5ED4DE" stop-opacity="0.14"/><stop offset="100%" stop-color="#5ED4DE" stop-opacity="0"/></radialGradient></defs><ellipse cx="120" cy="212" rx="56" ry="8" fill="#141210" opacity="0.05"/><circle cx="120" cy="100" r="64" fill="url(#mcg)"/><path d="M70,112 C70,72 96,56 120,56 C144,56 170,72 170,112 L70,112 Z" fill="#141210"/><circle cx="101" cy="84" r="5" fill="#5ED4DE" opacity="0.85"/><circle cx="129" cy="73" r="4" fill="#5ED4DE" opacity="0.85"/><circle cx="143" cy="94" r="4.5" fill="#5ED4DE" opacity="0.85"/><line x1="80" y1="112" x2="80" y2="119" stroke="#12707A" stroke-width="2.6" stroke-linecap="round"/><line x1="96" y1="112" x2="96" y2="119" stroke="#12707A" stroke-width="2.6" stroke-linecap="round"/><line x1="112" y1="112" x2="112" y2="119" stroke="#12707A" stroke-width="2.6" stroke-linecap="round"/><line x1="128" y1="112" x2="128" y2="119" stroke="#12707A" stroke-width="2.6" stroke-linecap="round"/><line x1="144" y1="112" x2="144" y2="119" stroke="#12707A" stroke-width="2.6" stroke-linecap="round"/><line x1="160" y1="112" x2="160" y2="119" stroke="#12707A" stroke-width="2.6" stroke-linecap="round"/><path d="M110,112 L110,148 L130,148 L130,112 Z" fill="#141210"/><rect x="56" y="148" width="128" height="5" rx="2.5" fill="#12707A"/><path d="M113,153 Q101,161 89,167" fill="none" stroke="#12707A" stroke-width="3.2" opacity="0.75" stroke-linecap="round"/><path d="M89,167 Q79,167 69,168" fill="none" stroke="#12707A" stroke-width="2.2" opacity="0.63" stroke-linecap="round"/><path d="M69,168 Q63,166 57,164" fill="none" stroke="#12707A" stroke-width="1.2" opacity="0.51" stroke-linecap="round"/><path d="M57,164 Q54,162 51,160" fill="none" stroke="#12707A" stroke-width="1.2" opacity="0.39" stroke-linecap="round"/><circle cx="51" cy="160" r="1.8" fill="#5ED4DE" opacity="0.9"/><circle cx="51" cy="160" r="1.8" fill="#5ED4DE" opacity="0.9"/><path d="M57,164 Q53,165 48,166" fill="none" stroke="#12707A" stroke-width="1.2" opacity="0.39" stroke-linecap="round"/><circle cx="48" cy="166" r="1.8" fill="#5ED4DE" opacity="0.9"/><circle cx="48" cy="166" r="1.8" fill="#5ED4DE" opacity="0.9"/><path d="M69,168 Q64,171 58,172" fill="none" stroke="#12707A" stroke-width="1.2" opacity="0.51" stroke-linecap="round"/><path d="M58,172 Q54,173 50,173" fill="none" stroke="#12707A" stroke-width="1.2" opacity="0.39" stroke-linecap="round"/><circle cx="50" cy="173" r="1.8" fill="#5ED4DE" opacity="0.9"/><circle cx="50" cy="173" r="1.8" fill="#5ED4DE" opacity="0.9"/><path d="M58,172 Q56,175 54,177" fill="none" stroke="#12707A" stroke-width="1.2" opacity="0.39" stroke-linecap="round"/><circle cx="54" cy="177" r="1.8" fill="#5ED4DE" opacity="0.9"/><circle cx="54" cy="177" r="1.8" fill="#5ED4DE" opacity="0.9"/><path d="M89,167 Q85,175 81,181" fill="none" stroke="#12707A" stroke-width="2.2" opacity="0.63" stroke-linecap="round"/><path d="M81,181 Q76,184 71,186" fill="none" stroke="#12707A" stroke-width="1.2" opacity="0.51" stroke-linecap="round"/><path d="M71,186 Q68,186 64,187" fill="none" stroke="#12707A" stroke-width="1.2" opacity="0.39" stroke-linecap="round"/><circle cx="64" cy="187" r="1.8" fill="#5ED4DE" opacity="0.9"/><circle cx="64" cy="187" r="1.8" fill="#5ED4DE" opacity="0.9"/><path d="M71,186 Q70,189 69,191" fill="none" stroke="#12707A" stroke-width="1.2" opacity="0.39" stroke-linecap="round"/><circle cx="69" cy="191" r="1.8" fill="#5ED4DE" opacity="0.9"/><circle cx="69" cy="191" r="1.8" fill="#5ED4DE" opacity="0.9"/><path d="M81,181 Q82,187 83,192" fill="none" stroke="#12707A" stroke-width="1.2" opacity="0.51" stroke-linecap="round"/><path d="M83,192 Q81,196 79,199" fill="none" stroke="#12707A" stroke-width="1.2" opacity="0.39" stroke-linecap="round"/><circle cx="79" cy="199" r="1.8" fill="#5ED4DE" opacity="0.9"/><circle cx="79" cy="199" r="1.8" fill="#5ED4DE" opacity="0.9"/><path d="M83,192 Q85,195 88,197" fill="none" stroke="#12707A" stroke-width="1.2" opacity="0.39" stroke-linecap="round"/><circle cx="88" cy="197" r="1.8" fill="#5ED4DE" opacity="0.9"/><circle cx="88" cy="197" r="1.8" fill="#5ED4DE" opacity="0.9"/><path d="M117,153 Q112,166 107,174" fill="none" stroke="#12707A" stroke-width="3.2" opacity="0.75" stroke-linecap="round"/><path d="M107,174 Q100,179 93,182" fill="none" stroke="#12707A" stroke-width="2.2" opacity="0.63" stroke-linecap="round"/><path d="M93,182 Q87,182 82,182" fill="none" stroke="#12707A" stroke-width="1.2" opacity="0.51" stroke-linecap="round"/><path d="M82,182 Q78,181 75,179" fill="none" stroke="#12707A" stroke-width="1.2" opacity="0.39" stroke-linecap="round"/><circle cx="75" cy="179" r="1.8" fill="#5ED4DE" opacity="0.9"/><circle cx="75" cy="179" r="1.8" fill="#5ED4DE" opacity="0.9"/><path d="M82,182 Q79,184 76,184" fill="none" stroke="#12707A" stroke-width="1.2" opacity="0.39" stroke-linecap="round"/><circle cx="76" cy="184" r="1.8" fill="#5ED4DE" opacity="0.9"/><circle cx="76" cy="184" r="1.8" fill="#5ED4DE" opacity="0.9"/><path d="M93,182 Q91,187 89,190" fill="none" stroke="#12707A" stroke-width="1.2" opacity="0.51" stroke-linecap="round"/><path d="M89,190 Q86,192 83,194" fill="none" stroke="#12707A" stroke-width="1.2" opacity="0.39" stroke-linecap="round"/><circle cx="83" cy="194" r="1.8" fill="#5ED4DE" opacity="0.9"/><circle cx="83" cy="194" r="1.8" fill="#5ED4DE" opacity="0.9"/><path d="M89,190 Q90,193 90,195" fill="none" stroke="#12707A" stroke-width="1.2" opacity="0.39" stroke-linecap="round"/><circle cx="90" cy="195" r="1.8" fill="#5ED4DE" opacity="0.9"/><circle cx="90" cy="195" r="1.8" fill="#5ED4DE" opacity="0.9"/><path d="M107,174 Q110,183 113,189" fill="none" stroke="#12707A" stroke-width="2.2" opacity="0.63" stroke-linecap="round"/><path d="M113,189 Q110,194 107,198" fill="none" stroke="#12707A" stroke-width="1.2" opacity="0.51" stroke-linecap="round"/><path d="M107,198 Q104,200 101,202" fill="none" stroke="#12707A" stroke-width="1.2" opacity="0.39" stroke-linecap="round"/><circle cx="101" cy="202" r="1.8" fill="#5ED4DE" opacity="0.9"/><circle cx="101" cy="202" r="1.8" fill="#5ED4DE" opacity="0.9"/><path d="M107,198 Q108,201 109,203" fill="none" stroke="#12707A" stroke-width="1.2" opacity="0.39" stroke-linecap="round"/><circle cx="109" cy="203" r="1.8" fill="#5ED4DE" opacity="0.9"/><circle cx="109" cy="203" r="1.8" fill="#5ED4DE" opacity="0.9"/><path d="M113,189 Q117,193 121,195" fill="none" stroke="#12707A" stroke-width="1.2" opacity="0.51" stroke-linecap="round"/><path d="M121,195 Q122,199 122,201" fill="none" stroke="#12707A" stroke-width="1.2" opacity="0.39" stroke-linecap="round"/><circle cx="122" cy="201" r="1.8" fill="#5ED4DE" opacity="0.9"/><circle cx="122" cy="201" r="1.8" fill="#5ED4DE" opacity="0.9"/><path d="M121,195 Q124,196 127,197" fill="none" stroke="#12707A" stroke-width="1.2" opacity="0.39" stroke-linecap="round"/><circle cx="127" cy="197" r="1.8" fill="#5ED4DE" opacity="0.9"/><circle cx="127" cy="197" r="1.8" fill="#5ED4DE" opacity="0.9"/><path d="M122,153 Q127,166 131,174" fill="none" stroke="#12707A" stroke-width="3.2" opacity="0.75" stroke-linecap="round"/><path d="M131,174 Q130,182 129,187" fill="none" stroke="#12707A" stroke-width="2.2" opacity="0.63" stroke-linecap="round"/><path d="M129,187 Q126,192 123,195" fill="none" stroke="#12707A" stroke-width="1.2" opacity="0.51" stroke-linecap="round"/><path d="M123,195 Q119,196 115,196" fill="none" stroke="#12707A" stroke-width="1.2" opacity="0.39" stroke-linecap="round"/><circle cx="115" cy="196" r="1.8" fill="#5ED4DE" opacity="0.9"/><circle cx="115" cy="196" r="1.8" fill="#5ED4DE" opacity="0.9"/><path d="M123,195 Q122,198 122,201" fill="none" stroke="#12707A" stroke-width="1.2" opacity="0.39" stroke-linecap="round"/><circle cx="122" cy="201" r="1.8" fill="#5ED4DE" opacity="0.9"/><circle cx="122" cy="201" r="1.8" fill="#5ED4DE" opacity="0.9"/><path d="M129,187 Q130,193 132,196" fill="none" stroke="#12707A" stroke-width="1.2" opacity="0.51" stroke-linecap="round"/><path d="M132,196 Q131,200 130,203" fill="none" stroke="#12707A" stroke-width="1.2" opacity="0.39" stroke-linecap="round"/><circle cx="130" cy="203" r="1.8" fill="#5ED4DE" opacity="0.9"/><circle cx="130" cy="203" r="1.8" fill="#5ED4DE" opacity="0.9"/><path d="M132,196 Q134,199 137,201" fill="none" stroke="#12707A" stroke-width="1.2" opacity="0.39" stroke-linecap="round"/><circle cx="137" cy="201" r="1.8" fill="#5ED4DE" opacity="0.9"/><circle cx="137" cy="201" r="1.8" fill="#5ED4DE" opacity="0.9"/><path d="M131,174 Q139,181 146,186" fill="none" stroke="#12707A" stroke-width="2.2" opacity="0.63" stroke-linecap="round"/><path d="M146,186 Q148,192 149,196" fill="none" stroke="#12707A" stroke-width="1.2" opacity="0.51" stroke-linecap="round"/><path d="M149,196 Q148,200 146,203" fill="none" stroke="#12707A" stroke-width="1.2" opacity="0.39" stroke-linecap="round"/><circle cx="146" cy="203" r="1.8" fill="#5ED4DE" opacity="0.9"/><circle cx="146" cy="203" r="1.8" fill="#5ED4DE" opacity="0.9"/><path d="M149,196 Q152,199 154,201" fill="none" stroke="#12707A" stroke-width="1.2" opacity="0.39" stroke-linecap="round"/><circle cx="154" cy="201" r="1.8" fill="#5ED4DE" opacity="0.9"/><circle cx="154" cy="201" r="1.8" fill="#5ED4DE" opacity="0.9"/><path d="M146,186 Q153,188 160,189" fill="none" stroke="#12707A" stroke-width="1.2" opacity="0.51" stroke-linecap="round"/><path d="M160,189 Q163,192 167,194" fill="none" stroke="#12707A" stroke-width="1.2" opacity="0.39" stroke-linecap="round"/><circle cx="167" cy="194" r="1.8" fill="#5ED4DE" opacity="0.9"/><circle cx="167" cy="194" r="1.8" fill="#5ED4DE" opacity="0.9"/><path d="M160,189 Q165,189 170,189" fill="none" stroke="#12707A" stroke-width="1.2" opacity="0.39" stroke-linecap="round"/><circle cx="170" cy="189" r="1.8" fill="#5ED4DE" opacity="0.9"/><circle cx="170" cy="189" r="1.8" fill="#5ED4DE" opacity="0.9"/><path d="M127,153 Q138,162 149,168" fill="none" stroke="#12707A" stroke-width="3.2" opacity="0.75" stroke-linecap="round"/><path d="M149,168 Q153,177 156,182" fill="none" stroke="#12707A" stroke-width="2.2" opacity="0.63" stroke-linecap="round"/><path d="M156,182 Q154,188 152,192" fill="none" stroke="#12707A" stroke-width="1.2" opacity="0.51" stroke-linecap="round"/><path d="M152,192 Q149,195 146,197" fill="none" stroke="#12707A" stroke-width="1.2" opacity="0.39" stroke-linecap="round"/><circle cx="146" cy="197" r="1.8" fill="#5ED4DE" opacity="0.9"/><circle cx="146" cy="197" r="1.8" fill="#5ED4DE" opacity="0.9"/><path d="M152,192 Q153,196 153,199" fill="none" stroke="#12707A" stroke-width="1.2" opacity="0.39" stroke-linecap="round"/><circle cx="153" cy="199" r="1.8" fill="#5ED4DE" opacity="0.9"/><circle cx="153" cy="199" r="1.8" fill="#5ED4DE" opacity="0.9"/><path d="M156,182 Q160,187 164,189" fill="none" stroke="#12707A" stroke-width="1.2" opacity="0.51" stroke-linecap="round"/><path d="M164,189 Q165,193 165,195" fill="none" stroke="#12707A" stroke-width="1.2" opacity="0.39" stroke-linecap="round"/><circle cx="165" cy="195" r="1.8" fill="#5ED4DE" opacity="0.9"/><circle cx="165" cy="195" r="1.8" fill="#5ED4DE" opacity="0.9"/><path d="M164,189 Q169,191 173,192" fill="none" stroke="#12707A" stroke-width="1.2" opacity="0.39" stroke-linecap="round"/><circle cx="173" cy="192" r="1.8" fill="#5ED4DE" opacity="0.9"/><circle cx="173" cy="192" r="1.8" fill="#5ED4DE" opacity="0.9"/><path d="M149,168 Q159,170 169,172" fill="none" stroke="#12707A" stroke-width="2.2" opacity="0.63" stroke-linecap="round"/><path d="M169,172 Q173,176 177,179" fill="none" stroke="#12707A" stroke-width="1.2" opacity="0.51" stroke-linecap="round"/><path d="M177,179 Q178,182 179,184" fill="none" stroke="#12707A" stroke-width="1.2" opacity="0.39" stroke-linecap="round"/><circle cx="179" cy="184" r="1.8" fill="#5ED4DE" opacity="0.9"/><circle cx="179" cy="184" r="1.8" fill="#5ED4DE" opacity="0.9"/><path d="M177,179 Q181,181 185,182" fill="none" stroke="#12707A" stroke-width="1.2" opacity="0.39" stroke-linecap="round"/><circle cx="185" cy="182" r="1.8" fill="#5ED4DE" opacity="0.9"/><circle cx="185" cy="182" r="1.8" fill="#5ED4DE" opacity="0.9"/><path d="M169,172 Q175,171 182,171" fill="none" stroke="#12707A" stroke-width="1.2" opacity="0.51" stroke-linecap="round"/><path d="M182,171 Q185,173 189,174" fill="none" stroke="#12707A" stroke-width="1.2" opacity="0.39" stroke-linecap="round"/><circle cx="189" cy="174" r="1.8" fill="#5ED4DE" opacity="0.9"/><circle cx="189" cy="174" r="1.8" fill="#5ED4DE" opacity="0.9"/><path d="M182,171 Q185,169 189,167" fill="none" stroke="#12707A" stroke-width="1.2" opacity="0.39" stroke-linecap="round"/><circle cx="189" cy="167" r="1.8" fill="#5ED4DE" opacity="0.9"/><circle cx="189" cy="167" r="1.8" fill="#5ED4DE" opacity="0.9"/><circle cx="60" cy="96" r="2.2" fill="#141210"/><circle cx="184" cy="130" r="2.4" fill="#141210"/></svg>