<svg viewBox="0 0 240 240" xmlns="http://www.w3.org/2000/svg"><defs><radialGradient id="ssd" cx="50%" cy="50%" r="50%"><stop offset="0%" stop-color="#B4501F" stop-opacity="0.42"/><stop offset="55%" stop-color="#B4501F" stop-opacity="0.14"/><stop offset="100%" stop-color="#B4501F" stop-opacity="0"/></radialGradient></defs><ellipse cx="120" cy="212" rx="54" ry="8" fill="#141210" opacity="0.05"/><circle cx="120" cy="120" r="62" fill="url(#ssd)"/><defs><clipPath id="ssdc"><circle cx="120" cy="120" r="58"/></clipPath></defs><circle cx="120" cy="120" r="58" fill="#B4501F" opacity="0.5"/><g clip-path="url(#ssdc)"><rect x="56" y="68" width="128" height="12" fill="#141210"/><rect x="56" y="88" width="128" height="12" fill="#141210"/><rect x="56" y="108" width="128" height="12" fill="#141210"/><rect x="56" y="128" width="128" height="12" fill="#141210"/><rect x="56" y="148" width="128" height="12" fill="#141210"/><rect x="56" y="168" width="128" height="12" fill="#141210"/></g><circle cx="120" cy="120" r="58" fill="none" stroke="#141210" stroke-width="14"/><circle cx="161.0" cy="161.0" r="4" fill="#141210"/><circle cx="79.0" cy="161.0" r="4" fill="#141210"/><circle cx="79.0" cy="79.0" r="4" fill="#141210"/><circle cx="161.0" cy="79.0" r="4" fill="#141210"/><circle cx="60" cy="150" r="2.2" fill="#141210"/><circle cx="186" cy="172" r="2.4" fill="#141210"/></svg>