<svg viewBox="0 0 1000 1000" xmlns="http://www.w3.org/2000/svg"><defs><linearGradient id="ssroca" x1="0" y1="0" x2="0" y2="1"><stop offset="0%" stop-color="#B4501F" stop-opacity="0.10"/><stop offset="100%" stop-color="#B4501F" stop-opacity="0.62"/></linearGradient></defs><rect width="1000" height="1000" fill="#D8D2C6"/><rect x="0" y="0.0" width="1000" height="83.0" fill="#9a9086"/><g fill="#00000026"><circle cx="420" cy="76" r="1.0"/><circle cx="60" cy="25" r="1.6"/><circle cx="781" cy="44" r="1.0"/><circle cx="916" cy="76" r="1.2"/><circle cx="410" cy="50" r="1.6"/><circle cx="620" cy="36" r="1.2"/><circle cx="646" cy="75" r="0.7"/><circle cx="90" cy="62" r="1.2"/><circle cx="777" cy="44" r="1.2"/><circle cx="954" cy="30" r="1.5"/><circle cx="543" cy="9" r="0.8"/><circle cx="817" cy="43" r="1.6"/><circle cx="454" cy="70" r="1.8"/><circle cx="431" cy="11" r="1.8"/><circle cx="499" cy="46" r="1.3"/><circle cx="37" cy="42" r="0.7"/><circle cx="63" cy="68" r="0.8"/><circle cx="722" cy="36" r="1.3"/><circle cx="508" cy="14" r="0.7"/><circle cx="638" cy="8" r="0.7"/><circle cx="45" cy="49" r="1.9"/><circle cx="541" cy="1" r="1.4"/><circle cx="478" cy="56" r="0.8"/><circle cx="674" cy="76" r="0.9"/><circle cx="951" cy="50" r="1.8"/><circle cx="208" cy="32" r="1.8"/><circle cx="832" cy="48" r="1.6"/><circle cx="570" cy="37" r="1.0"/><circle cx="498" cy="42" r="1.3"/><circle cx="10" cy="80" r="2.0"/><circle cx="712" cy="15" r="1.8"/><circle cx="250" cy="3" r="0.9"/><circle cx="789" cy="71" r="1.9"/><circle cx="805" cy="25" r="1.4"/><circle cx="700" cy="5" r="0.7"/><circle cx="714" cy="28" r="0.7"/><circle cx="502" cy="7" r="1.5"/><circle cx="84" cy="80" r="1.8"/><circle cx="204" cy="13" r="1.6"/><circle cx="235" cy="71" r="1.7"/><circle cx="803" cy="31" r="1.7"/><circle cx="921" cy="72" r="1.0"/><circle cx="195" cy="8" r="0.9"/><circle cx="607" cy="25" r="1.3"/><circle cx="897" cy="48" r="1.2"/><circle cx="95" cy="53" r="1.2"/><circle cx="146" cy="50" r="1.4"/><circle cx="935" cy="2" r="0.8"/><circle cx="328" cy="13" r="0.7"/><circle cx="82" cy="47" r="1.3"/></g><line x1="0" y1="0.0" x2="1000" y2="0.0" stroke="#D8D2C6" stroke-width="1" opacity="0.14"/><rect x="0" y="82.0" width="1000" height="88.0" fill="#867d74"/><g fill="#00000026"><circle cx="109" cy="99" r="0.9"/><circle cx="495" cy="126" r="1.6"/><circle cx="680" cy="160" r="1.2"/><circle cx="143" cy="140" r="2.0"/><circle cx="259" cy="136" r="1.0"/><circle cx="346" cy="118" r="0.8"/><circle cx="279" cy="136" r="1.7"/><circle cx="683" cy="161" r="1.3"/><circle cx="699" cy="103" r="0.7"/><circle cx="618" cy="84" r="0.8"/><circle cx="122" cy="117" r="0.8"/><circle cx="951" cy="131" r="1.4"/><circle cx="910" cy="149" r="2.0"/><circle cx="483" cy="158" r="2.0"/><circle cx="622" cy="165" r="1.7"/><circle cx="137" cy="154" r="1.9"/><circle cx="729" cy="108" r="1.1"/><circle cx="504" cy="107" r="1.0"/><circle cx="906" cy="142" r="0.6"/><circle cx="360" cy="125" r="1.6"/><circle cx="223" cy="150" r="0.8"/><circle cx="657" cy="101" r="1.3"/><circle cx="214" cy="145" r="0.8"/><circle cx="200" cy="86" r="1.9"/><circle cx="582" cy="99" r="1.6"/><circle cx="325" cy="108" r="1.8"/><circle cx="693" cy="84" r="0.8"/><circle cx="803" cy="129" r="1.8"/><circle cx="214" cy="107" r="0.6"/><circle cx="269" cy="94" r="1.7"/><circle cx="674" cy="90" r="1.9"/><circle cx="457" cy="166" r="0.9"/><circle cx="990" cy="139" r="1.9"/><circle cx="742" cy="151" r="0.8"/><circle cx="657" cy="100" r="1.0"/><circle cx="580" cy="155" r="2.0"/><circle cx="369" cy="112" r="0.8"/><circle cx="331" cy="135" r="1.3"/><circle cx="645" cy="152" r="1.5"/><circle cx="244" cy="122" r="1.9"/><circle cx="565" cy="122" r="1.2"/><circle cx="785" cy="97" r="1.6"/><circle cx="345" cy="160" r="1.4"/><circle cx="278" cy="114" r="1.4"/><circle cx="160" cy="127" r="1.5"/><circle cx="981" cy="126" r="1.8"/><circle cx="849" cy="98" r="1.8"/><circle cx="928" cy="116" r="0.7"/><circle cx="494" cy="115" r="1.8"/><circle cx="509" cy="93" r="1.5"/><circle cx="953" cy="153" r="0.7"/><circle cx="146" cy="124" r="1.6"/><circle cx="528" cy="113" r="0.6"/><circle cx="573" cy="114" r="1.8"/><circle cx="14" cy="93" r="0.8"/><circle cx="120" cy="143" r="1.8"/><circle cx="200" cy="120" r="1.9"/><circle cx="717" cy="157" r="1.7"/><circle cx="850" cy="115" r="1.7"/><circle cx="861" cy="157" r="1.0"/><circle cx="356" cy="92" r="1.7"/><circle cx="135" cy="147" r="0.9"/><circle cx="441" cy="124" r="1.1"/><circle cx="95" cy="154" r="0.9"/><circle cx="143" cy="120" r="1.4"/><circle cx="269" cy="134" r="1.2"/><circle cx="656" cy="140" r="1.0"/><circle cx="130" cy="130" r="1.0"/><circle cx="259" cy="137" r="1.4"/><circle cx="45" cy="87" r="1.6"/><circle cx="849" cy="168" r="0.8"/><circle cx="611" cy="122" r="1.7"/><circle cx="604" cy="91" r="1.7"/><circle cx="291" cy="107" r="1.2"/><circle cx="233" cy="154" r="1.0"/><circle cx="180" cy="126" r="1.3"/><circle cx="198" cy="154" r="0.7"/><circle cx="729" cy="89" r="1.7"/><circle cx="823" cy="101" r="1.2"/><circle cx="469" cy="123" r="1.3"/><circle cx="669" cy="163" r="1.6"/><circle cx="884" cy="127" r="0.8"/><circle cx="312" cy="125" r="1.3"/><circle cx="685" cy="138" r="1.4"/><circle cx="407" cy="109" r="0.7"/><circle cx="200" cy="146" r="1.8"/><circle cx="408" cy="100" r="1.6"/><circle cx="302" cy="127" r="1.4"/><circle cx="441" cy="142" r="1.9"/><circle cx="21" cy="109" r="1.2"/></g><line x1="0" y1="82.0" x2="1000" y2="82.0" stroke="#D8D2C6" stroke-width="1" opacity="0.14"/><rect x="0" y="169.0" width="1000" height="93.0" fill="#736b63"/><g fill="#00000026"><circle cx="433" cy="176" r="1.7"/><circle cx="552" cy="258" r="0.9"/><circle cx="980" cy="224" r="1.0"/><circle cx="158" cy="248" r="1.7"/><circle cx="923" cy="244" r="1.9"/><circle cx="754" cy="261" r="1.0"/><circle cx="947" cy="170" r="1.4"/><circle cx="187" cy="253" r="1.4"/><circle cx="319" cy="222" r="2.0"/><circle cx="622" cy="258" r="0.7"/><circle cx="728" cy="209" r="1.6"/><circle cx="24" cy="189" r="1.8"/><circle cx="921" cy="179" r="0.9"/><circle cx="922" cy="257" r="1.7"/><circle cx="626" cy="252" r="0.6"/><circle cx="651" cy="178" r="1.1"/><circle cx="302" cy="218" r="0.9"/><circle cx="351" cy="175" r="2.0"/><circle cx="560" cy="222" r="1.7"/><circle cx="611" cy="195" r="1.6"/><circle cx="426" cy="209" r="0.8"/><circle cx="688" cy="209" r="0.9"/><circle cx="777" cy="187" r="0.8"/><circle cx="706" cy="257" r="1.9"/><circle cx="942" cy="193" r="1.1"/><circle cx="593" cy="206" r="2.0"/><circle cx="572" cy="176" r="1.1"/><circle cx="905" cy="242" r="0.9"/><circle cx="114" cy="228" r="1.6"/><circle cx="421" cy="180" r="1.6"/><circle cx="46" cy="228" r="0.8"/><circle cx="481" cy="242" r="1.9"/><circle cx="641" cy="171" r="1.8"/><circle cx="620" cy="188" r="1.8"/><circle cx="710" cy="199" r="0.8"/><circle cx="970" cy="191" r="1.4"/><circle cx="529" cy="205" r="0.8"/><circle cx="423" cy="238" r="0.8"/><circle cx="986" cy="194" r="0.9"/><circle cx="339" cy="215" r="1.5"/><circle cx="731" cy="253" r="1.1"/><circle cx="842" cy="250" r="1.6"/><circle cx="997" cy="198" r="1.1"/><circle cx="865" cy="249" r="1.6"/><circle cx="602" cy="184" r="1.0"/><circle cx="319" cy="256" r="1.6"/><circle cx="151" cy="180" r="1.1"/><circle cx="603" cy="251" r="1.8"/><circle cx="373" cy="170" r="1.5"/><circle cx="234" cy="220" r="1.4"/><circle cx="205" cy="172" r="1.9"/><circle cx="958" cy="228" r="1.9"/><circle cx="446" cy="188" r="1.6"/><circle cx="847" cy="202" r="1.8"/><circle cx="166" cy="224" r="1.8"/><circle cx="60" cy="183" r="1.7"/><circle cx="174" cy="218" r="0.8"/><circle cx="421" cy="204" r="1.9"/><circle cx="985" cy="203" r="1.6"/><circle cx="678" cy="242" r="1.2"/><circle cx="962" cy="252" r="1.1"/><circle cx="887" cy="188" r="0.8"/><circle cx="399" cy="212" r="1.7"/><circle cx="438" cy="213" r="1.6"/><circle cx="408" cy="188" r="1.2"/><circle cx="417" cy="230" r="1.2"/><circle cx="596" cy="170" r="1.6"/><circle cx="725" cy="210" r="1.3"/><circle cx="418" cy="204" r="1.5"/><circle cx="863" cy="213" r="1.6"/><circle cx="298" cy="252" r="1.7"/><circle cx="125" cy="214" r="1.8"/><circle cx="92" cy="219" r="1.7"/><circle cx="770" cy="206" r="1.1"/><circle cx="281" cy="176" r="1.6"/><circle cx="221" cy="206" r="1.7"/><circle cx="680" cy="237" r="1.7"/><circle cx="781" cy="190" r="1.0"/><circle cx="950" cy="247" r="1.8"/><circle cx="342" cy="224" r="1.4"/><circle cx="525" cy="237" r="1.3"/><circle cx="975" cy="205" r="0.8"/><circle cx="106" cy="193" r="0.7"/><circle cx="741" cy="185" r="1.1"/><circle cx="313" cy="260" r="1.1"/><circle cx="297" cy="189" r="1.5"/><circle cx="156" cy="190" r="0.7"/><circle cx="222" cy="244" r="1.5"/><circle cx="384" cy="182" r="1.6"/><circle cx="509" cy="182" r="1.8"/><circle cx="255" cy="179" r="1.2"/><circle cx="425" cy="171" r="1.2"/><circle cx="794" cy="178" r="1.4"/><circle cx="164" cy="239" r="1.4"/><circle cx="722" cy="195" r="0.9"/><circle cx="84" cy="181" r="1.8"/><circle cx="927" cy="190" r="1.3"/><circle cx="170" cy="194" r="1.1"/><circle cx="52" cy="197" r="1.3"/><circle cx="416" cy="253" r="1.6"/><circle cx="86" cy="259" r="1.4"/><circle cx="391" cy="208" r="1.5"/><circle cx="652" cy="228" r="1.9"/><circle cx="266" cy="248" r="1.1"/><circle cx="983" cy="226" r="0.9"/><circle cx="465" cy="260" r="1.9"/><circle cx="794" cy="191" r="1.2"/><circle cx="178" cy="184" r="1.4"/><circle cx="241" cy="239" r="1.2"/><circle cx="394" cy="217" r="2.0"/><circle cx="66" cy="248" r="1.3"/><circle cx="389" cy="181" r="1.5"/><circle cx="536" cy="253" r="1.9"/><circle cx="131" cy="245" r="1.9"/><circle cx="276" cy="183" r="1.7"/><circle cx="813" cy="202" r="0.8"/><circle cx="219" cy="205" r="0.6"/><circle cx="142" cy="193" r="1.9"/><circle cx="465" cy="251" r="1.3"/><circle cx="988" cy="221" r="1.3"/><circle cx="956" cy="232" r="1.1"/><circle cx="776" cy="257" r="1.9"/><circle cx="787" cy="192" r="1.2"/><circle cx="857" cy="250" r="0.7"/><circle cx="68" cy="176" r="1.2"/><circle cx="493" cy="196" r="1.7"/><circle cx="627" cy="194" r="0.8"/><circle cx="569" cy="255" r="1.2"/><circle cx="249" cy="193" r="1.8"/><circle cx="693" cy="254" r="1.3"/></g><line x1="0" y1="169.0" x2="1000" y2="169.0" stroke="#D8D2C6" stroke-width="1" opacity="0.14"/><rect x="0" y="261.0" width="1000" height="98.0" fill="#605951"/><g fill="#00000026"><circle cx="662" cy="300" r="1.9"/><circle cx="655" cy="332" r="1.1"/><circle cx="127" cy="302" r="0.7"/><circle cx="382" cy="263" r="1.4"/><circle cx="78" cy="314" r="1.6"/><circle cx="677" cy="328" r="0.7"/><circle cx="727" cy="283" r="1.3"/><circle cx="446" cy="318" r="0.8"/><circle cx="622" cy="280" r="1.3"/><circle cx="740" cy="340" r="0.8"/><circle cx="346" cy="337" r="1.6"/><circle cx="835" cy="317" r="1.1"/><circle cx="405" cy="335" r="1.3"/><circle cx="158" cy="352" r="1.7"/><circle cx="108" cy="322" r="1.0"/><circle cx="985" cy="314" r="0.8"/><circle cx="889" cy="292" r="1.8"/><circle cx="496" cy="304" r="0.8"/><circle cx="995" cy="335" r="0.7"/><circle cx="32" cy="292" r="1.3"/><circle cx="952" cy="348" r="1.4"/><circle cx="36" cy="292" r="1.8"/><circle cx="359" cy="343" r="1.6"/><circle cx="24" cy="283" r="1.5"/><circle cx="668" cy="263" r="1.7"/><circle cx="356" cy="295" r="1.9"/><circle cx="613" cy="268" r="2.0"/><circle cx="891" cy="357" r="2.0"/><circle cx="913" cy="264" r="1.7"/><circle cx="724" cy="264" r="1.7"/><circle cx="511" cy="316" r="0.7"/><circle cx="530" cy="334" r="1.4"/><circle cx="124" cy="296" r="1.3"/><circle cx="191" cy="350" r="1.4"/><circle cx="982" cy="299" r="1.2"/><circle cx="203" cy="346" r="1.2"/><circle cx="505" cy="320" r="0.9"/><circle cx="949" cy="267" r="1.7"/><circle cx="720" cy="324" r="1.6"/><circle cx="170" cy="348" r="1.4"/><circle cx="997" cy="320" r="1.7"/><circle cx="128" cy="315" r="1.1"/><circle cx="508" cy="312" r="2.0"/><circle cx="283" cy="287" r="1.4"/><circle cx="895" cy="320" r="1.7"/><circle cx="975" cy="342" r="1.7"/><circle cx="911" cy="334" r="0.8"/><circle cx="285" cy="312" r="1.9"/><circle cx="996" cy="332" r="1.1"/><circle cx="88" cy="303" r="1.9"/><circle cx="12" cy="288" r="1.4"/><circle cx="70" cy="348" r="0.7"/><circle cx="297" cy="264" r="1.7"/><circle cx="222" cy="262" r="1.2"/><circle cx="901" cy="286" r="1.4"/><circle cx="341" cy="289" r="1.6"/><circle cx="84" cy="348" r="1.6"/><circle cx="872" cy="281" r="0.7"/><circle cx="786" cy="333" r="1.2"/><circle cx="142" cy="279" r="1.7"/><circle cx="989" cy="276" r="1.3"/><circle cx="707" cy="345" r="1.8"/><circle cx="135" cy="275" r="1.5"/><circle cx="542" cy="299" r="1.5"/><circle cx="899" cy="306" r="1.0"/><circle cx="628" cy="270" r="1.2"/><circle cx="227" cy="280" r="1.6"/><circle cx="469" cy="264" r="1.7"/><circle cx="863" cy="261" r="1.7"/><circle cx="669" cy="326" r="1.1"/><circle cx="564" cy="285" r="1.4"/><circle cx="10" cy="284" r="1.0"/><circle cx="965" cy="306" r="1.5"/><circle cx="378" cy="263" r="1.2"/><circle cx="120" cy="340" r="2.0"/><circle cx="588" cy="335" r="0.6"/><circle cx="278" cy="299" r="1.3"/><circle cx="412" cy="290" r="1.2"/><circle cx="128" cy="331" r="1.6"/><circle cx="816" cy="284" r="1.7"/><circle cx="58" cy="303" r="1.5"/><circle cx="311" cy="307" r="1.2"/><circle cx="686" cy="309" r="1.1"/><circle cx="435" cy="322" r="1.9"/><circle cx="693" cy="266" r="0.8"/><circle cx="692" cy="297" r="0.6"/><circle cx="618" cy="275" r="1.0"/><circle cx="643" cy="284" r="0.9"/><circle cx="951" cy="321" r="1.8"/><circle cx="165" cy="344" r="0.7"/><circle cx="273" cy="357" r="0.8"/><circle cx="918" cy="298" r="1.9"/><circle cx="97" cy="334" r="1.2"/><circle cx="118" cy="345" r="0.8"/><circle cx="663" cy="263" r="2.0"/><circle cx="662" cy="340" r="1.9"/><circle cx="111" cy="286" r="1.7"/><circle cx="703" cy="280" r="1.4"/><circle cx="289" cy="350" r="2.0"/><circle cx="74" cy="354" r="1.5"/><circle cx="262" cy="319" r="1.7"/><circle cx="907" cy="353" r="0.9"/><circle cx="0" cy="307" r="1.0"/><circle cx="703" cy="335" r="1.8"/><circle cx="143" cy="280" r="1.2"/><circle cx="164" cy="266" r="1.8"/><circle cx="22" cy="315" r="1.4"/><circle cx="414" cy="336" r="1.1"/><circle cx="489" cy="292" r="1.2"/><circle cx="829" cy="334" r="1.1"/><circle cx="862" cy="303" r="1.0"/><circle cx="906" cy="337" r="0.7"/><circle cx="677" cy="316" r="1.0"/><circle cx="570" cy="262" r="0.8"/><circle cx="43" cy="305" r="1.6"/><circle cx="595" cy="270" r="0.6"/><circle cx="652" cy="264" r="1.2"/><circle cx="572" cy="292" r="0.8"/><circle cx="250" cy="272" r="1.6"/><circle cx="588" cy="264" r="0.7"/><circle cx="988" cy="298" r="2.0"/><circle cx="906" cy="266" r="1.0"/><circle cx="882" cy="305" r="1.4"/><circle cx="682" cy="321" r="0.8"/><circle cx="208" cy="330" r="1.5"/><circle cx="428" cy="295" r="1.7"/><circle cx="97" cy="337" r="1.3"/><circle cx="634" cy="277" r="1.1"/><circle cx="416" cy="300" r="0.7"/><circle cx="418" cy="285" r="1.4"/><circle cx="844" cy="261" r="1.5"/><circle cx="256" cy="329" r="0.8"/><circle cx="919" cy="290" r="1.5"/><circle cx="690" cy="275" r="0.6"/><circle cx="910" cy="272" r="0.8"/><circle cx="119" cy="342" r="1.3"/><circle cx="920" cy="300" r="1.8"/><circle cx="375" cy="275" r="1.8"/><circle cx="63" cy="294" r="1.4"/><circle cx="324" cy="331" r="1.7"/><circle cx="781" cy="284" r="1.3"/><circle cx="529" cy="329" r="1.3"/><circle cx="780" cy="316" r="1.2"/><circle cx="105" cy="295" r="1.6"/><circle cx="120" cy="308" r="0.7"/><circle cx="88" cy="288" r="1.1"/><circle cx="134" cy="304" r="0.8"/><circle cx="530" cy="307" r="1.5"/><circle cx="884" cy="326" r="0.6"/><circle cx="909" cy="296" r="1.6"/><circle cx="444" cy="349" r="0.7"/><circle cx="853" cy="307" r="1.6"/><circle cx="762" cy="315" r="1.7"/><circle cx="991" cy="320" r="1.7"/><circle cx="417" cy="283" r="1.5"/><circle cx="38" cy="297" r="1.7"/><circle cx="914" cy="328" r="1.5"/><circle cx="140" cy="341" r="1.9"/><circle cx="214" cy="268" r="1.4"/><circle cx="458" cy="342" r="1.3"/><circle cx="555" cy="297" r="1.3"/><circle cx="871" cy="290" r="1.3"/><circle cx="913" cy="289" r="0.7"/><circle cx="644" cy="275" r="1.1"/><circle cx="723" cy="308" r="1.9"/><circle cx="203" cy="308" r="0.7"/><circle cx="959" cy="274" r="0.7"/><circle cx="224" cy="288" r="1.5"/><circle cx="920" cy="339" r="1.5"/><circle cx="17" cy="348" r="0.8"/></g><line x1="0" y1="261.0" x2="1000" y2="261.0" stroke="#D8D2C6" stroke-width="1" opacity="0.14"/><rect x="0" y="358.0" width="1000" height="103.0" fill="#4d4740"/><g fill="#00000026"><circle cx="455" cy="359" r="1.7"/><circle cx="671" cy="377" r="1.7"/><circle cx="959" cy="388" r="0.6"/><circle cx="549" cy="394" r="1.7"/><circle cx="806" cy="440" r="1.1"/><circle cx="676" cy="398" r="1.0"/><circle cx="744" cy="374" r="0.8"/><circle cx="338" cy="367" r="1.7"/><circle cx="791" cy="394" r="1.3"/><circle cx="75" cy="370" r="1.6"/><circle cx="119" cy="364" r="1.0"/><circle cx="275" cy="371" r="1.2"/><circle cx="33" cy="365" r="1.3"/><circle cx="144" cy="387" r="1.0"/><circle cx="599" cy="376" r="1.7"/><circle cx="955" cy="409" r="1.5"/><circle cx="487" cy="411" r="1.2"/><circle cx="132" cy="383" r="1.1"/><circle cx="998" cy="359" r="1.3"/><circle cx="978" cy="408" r="1.2"/><circle cx="16" cy="416" r="1.5"/><circle cx="713" cy="457" r="2.0"/><circle cx="800" cy="406" r="0.9"/><circle cx="221" cy="404" r="1.7"/><circle cx="102" cy="396" r="1.8"/><circle cx="197" cy="458" r="0.6"/><circle cx="977" cy="359" r="1.2"/><circle cx="129" cy="439" r="1.8"/><circle cx="171" cy="389" r="1.6"/><circle cx="792" cy="428" r="1.0"/><circle cx="26" cy="416" r="1.8"/><circle cx="687" cy="416" r="0.7"/><circle cx="385" cy="364" r="1.2"/><circle cx="659" cy="399" r="0.7"/><circle cx="835" cy="419" r="0.9"/><circle cx="172" cy="395" r="1.8"/><circle cx="445" cy="402" r="1.0"/><circle cx="861" cy="406" r="1.9"/><circle cx="501" cy="421" r="0.9"/><circle cx="839" cy="413" r="1.5"/><circle cx="555" cy="421" r="1.3"/><circle cx="512" cy="422" r="1.4"/><circle cx="364" cy="454" r="1.7"/><circle cx="728" cy="359" r="1.7"/><circle cx="482" cy="380" r="1.0"/><circle cx="4" cy="370" r="1.6"/><circle cx="89" cy="417" r="1.2"/><circle cx="521" cy="438" r="0.9"/><circle cx="167" cy="362" r="0.9"/><circle cx="770" cy="450" r="1.5"/><circle cx="806" cy="412" r="1.8"/><circle cx="666" cy="427" r="1.3"/><circle cx="426" cy="405" r="0.7"/><circle cx="187" cy="418" r="1.2"/><circle cx="145" cy="446" r="1.0"/><circle cx="72" cy="432" r="0.6"/><circle cx="616" cy="377" r="1.4"/><circle cx="18" cy="398" r="1.9"/><circle cx="499" cy="389" r="1.0"/><circle cx="903" cy="408" r="1.8"/><circle cx="912" cy="372" r="1.2"/><circle cx="225" cy="378" r="1.3"/><circle cx="131" cy="421" r="1.0"/><circle cx="421" cy="408" r="1.1"/><circle cx="864" cy="396" r="1.6"/><circle cx="821" cy="420" r="1.0"/><circle cx="323" cy="408" r="0.9"/><circle cx="888" cy="454" r="1.2"/><circle cx="200" cy="402" r="1.5"/><circle cx="201" cy="420" r="1.3"/><circle cx="935" cy="418" r="0.8"/><circle cx="716" cy="442" r="1.8"/><circle cx="263" cy="393" r="1.4"/><circle cx="657" cy="423" r="0.6"/><circle cx="392" cy="389" r="1.9"/><circle cx="387" cy="439" r="1.3"/><circle cx="714" cy="419" r="1.7"/><circle cx="577" cy="394" r="0.9"/><circle cx="213" cy="382" r="1.5"/><circle cx="46" cy="427" r="1.3"/><circle cx="824" cy="375" r="1.6"/><circle cx="347" cy="413" r="1.5"/><circle cx="230" cy="419" r="1.6"/><circle cx="465" cy="441" r="1.3"/><circle cx="404" cy="411" r="1.4"/><circle cx="97" cy="435" r="1.9"/><circle cx="768" cy="362" r="1.0"/><circle cx="709" cy="379" r="1.1"/><circle cx="399" cy="454" r="0.7"/><circle cx="557" cy="406" r="1.2"/><circle cx="792" cy="413" r="0.8"/><circle cx="707" cy="419" r="1.3"/><circle cx="616" cy="429" r="1.7"/><circle cx="613" cy="426" r="0.7"/><circle cx="351" cy="410" r="1.3"/><circle cx="951" cy="414" r="1.2"/><circle cx="146" cy="380" r="1.4"/><circle cx="430" cy="411" r="1.9"/><circle cx="867" cy="444" r="1.5"/><circle cx="513" cy="389" r="0.9"/><circle cx="781" cy="367" r="1.0"/><circle cx="225" cy="432" r="0.9"/><circle cx="963" cy="459" r="0.7"/><circle cx="676" cy="403" r="1.7"/><circle cx="730" cy="371" r="1.2"/><circle cx="149" cy="376" r="1.6"/><circle cx="588" cy="390" r="1.7"/><circle cx="15" cy="439" r="1.9"/><circle cx="83" cy="375" r="0.9"/><circle cx="403" cy="425" r="1.9"/><circle cx="738" cy="434" r="1.9"/><circle cx="682" cy="440" r="1.1"/><circle cx="950" cy="425" r="1.5"/><circle cx="483" cy="416" r="1.9"/><circle cx="114" cy="376" r="1.2"/><circle cx="411" cy="402" r="0.7"/><circle cx="929" cy="410" r="1.4"/><circle cx="801" cy="455" r="0.7"/><circle cx="922" cy="427" r="1.1"/><circle cx="927" cy="457" r="0.6"/><circle cx="130" cy="364" r="1.9"/><circle cx="338" cy="371" r="1.7"/><circle cx="465" cy="454" r="1.4"/><circle cx="644" cy="404" r="1.1"/><circle cx="368" cy="417" r="1.9"/><circle cx="266" cy="361" r="1.7"/><circle cx="634" cy="458" r="0.7"/><circle cx="69" cy="419" r="1.5"/><circle cx="541" cy="416" r="1.1"/><circle cx="315" cy="423" r="1.7"/><circle cx="382" cy="392" r="1.5"/><circle cx="86" cy="360" r="0.9"/><circle cx="472" cy="442" r="1.8"/><circle cx="794" cy="368" r="0.9"/><circle cx="764" cy="448" r="0.8"/><circle cx="20" cy="385" r="1.5"/><circle cx="213" cy="382" r="1.4"/><circle cx="56" cy="456" r="1.2"/><circle cx="305" cy="402" r="1.8"/><circle cx="145" cy="392" r="2.0"/><circle cx="317" cy="378" r="1.2"/><circle cx="501" cy="407" r="1.2"/><circle cx="351" cy="429" r="1.7"/><circle cx="339" cy="432" r="1.1"/><circle cx="80" cy="443" r="1.9"/><circle cx="869" cy="411" r="0.9"/><circle cx="828" cy="359" r="0.7"/><circle cx="233" cy="435" r="1.9"/><circle cx="243" cy="416" r="1.6"/><circle cx="828" cy="420" r="1.4"/><circle cx="2" cy="453" r="1.3"/><circle cx="769" cy="358" r="1.3"/><circle cx="914" cy="434" r="1.9"/><circle cx="135" cy="359" r="1.5"/><circle cx="348" cy="389" r="1.2"/><circle cx="544" cy="430" r="1.0"/><circle cx="672" cy="406" r="1.4"/><circle cx="588" cy="435" r="0.9"/><circle cx="786" cy="392" r="1.9"/><circle cx="466" cy="436" r="1.9"/><circle cx="304" cy="422" r="1.7"/><circle cx="434" cy="418" r="1.1"/><circle cx="56" cy="393" r="0.8"/><circle cx="264" cy="360" r="0.9"/><circle cx="790" cy="386" r="1.3"/><circle cx="498" cy="384" r="1.3"/><circle cx="101" cy="449" r="1.9"/><circle cx="855" cy="432" r="0.8"/><circle cx="764" cy="396" r="1.3"/><circle cx="880" cy="413" r="1.9"/><circle cx="724" cy="401" r="1.8"/><circle cx="508" cy="400" r="1.7"/><circle cx="601" cy="443" r="1.6"/><circle cx="127" cy="452" r="1.4"/><circle cx="826" cy="379" r="1.3"/><circle cx="680" cy="399" r="1.3"/><circle cx="105" cy="393" r="1.8"/><circle cx="585" cy="401" r="2.0"/><circle cx="54" cy="447" r="1.8"/><circle cx="852" cy="406" r="2.0"/><circle cx="448" cy="427" r="1.6"/><circle cx="764" cy="412" r="0.7"/><circle cx="568" cy="435" r="0.9"/><circle cx="210" cy="360" r="0.6"/><circle cx="822" cy="406" r="1.6"/><circle cx="679" cy="456" r="1.9"/><circle cx="788" cy="451" r="1.6"/><circle cx="268" cy="452" r="1.8"/><circle cx="57" cy="428" r="1.6"/><circle cx="140" cy="411" r="0.8"/><circle cx="257" cy="459" r="0.7"/><circle cx="337" cy="359" r="0.7"/><circle cx="764" cy="370" r="1.3"/><circle cx="34" cy="423" r="0.7"/><circle cx="765" cy="410" r="1.2"/><circle cx="289" cy="411" r="1.8"/><circle cx="274" cy="401" r="1.3"/><circle cx="30" cy="448" r="1.5"/><circle cx="331" cy="386" r="1.0"/><circle cx="66" cy="401" r="0.7"/><circle cx="923" cy="393" r="0.6"/><circle cx="553" cy="441" r="1.7"/><circle cx="27" cy="391" r="1.3"/><circle cx="381" cy="382" r="1.3"/><circle cx="272" cy="442" r="2.0"/><circle cx="732" cy="452" r="0.6"/><circle cx="642" cy="451" r="0.7"/><circle cx="457" cy="441" r="1.0"/><circle cx="945" cy="359" r="0.7"/><circle cx="946" cy="430" r="0.6"/></g><line x1="0" y1="358.0" x2="1000" y2="358.0" stroke="#D8D2C6" stroke-width="1" opacity="0.14"/><rect x="0" y="460.0" width="1000" height="108.0" fill="#3a352f"/><g fill="#00000026"><circle cx="218" cy="520" r="1.3"/><circle cx="893" cy="470" r="1.5"/><circle cx="607" cy="552" r="1.0"/><circle cx="757" cy="550" r="1.3"/><circle cx="176" cy="551" r="1.9"/><circle cx="56" cy="518" r="1.6"/><circle cx="605" cy="463" r="1.4"/><circle cx="693" cy="487" r="1.7"/><circle cx="528" cy="488" r="1.1"/><circle cx="182" cy="493" r="0.9"/><circle cx="31" cy="546" r="1.7"/><circle cx="519" cy="549" r="1.7"/><circle cx="953" cy="547" r="2.0"/><circle cx="255" cy="523" r="1.9"/><circle cx="215" cy="564" r="1.3"/><circle cx="569" cy="472" r="1.8"/><circle cx="862" cy="483" r="0.7"/><circle cx="854" cy="480" r="0.7"/><circle cx="708" cy="490" r="1.7"/><circle cx="616" cy="515" r="1.6"/><circle cx="643" cy="502" r="1.4"/><circle cx="533" cy="563" r="1.0"/><circle cx="532" cy="562" r="2.0"/><circle cx="751" cy="503" r="1.7"/><circle cx="652" cy="522" r="1.4"/><circle cx="436" cy="559" r="1.2"/><circle cx="123" cy="483" r="1.1"/><circle cx="572" cy="556" r="1.1"/><circle cx="131" cy="509" r="0.9"/><circle cx="88" cy="463" r="1.9"/><circle cx="336" cy="476" r="0.8"/><circle cx="161" cy="563" r="1.1"/><circle cx="676" cy="551" r="0.8"/><circle cx="206" cy="462" r="1.3"/><circle cx="847" cy="475" r="1.5"/><circle cx="988" cy="464" r="1.8"/><circle cx="421" cy="546" r="0.9"/><circle cx="444" cy="516" r="1.5"/><circle cx="869" cy="463" r="1.4"/><circle cx="999" cy="504" r="1.7"/><circle cx="916" cy="527" r="0.7"/><circle cx="730" cy="544" r="0.7"/><circle cx="902" cy="481" r="1.6"/><circle cx="211" cy="553" r="0.8"/><circle cx="246" cy="466" r="1.9"/><circle cx="323" cy="545" r="1.2"/><circle cx="989" cy="460" r="0.6"/><circle cx="799" cy="527" r="0.8"/><circle cx="46" cy="470" r="1.7"/><circle cx="915" cy="486" r="0.9"/><circle cx="379" cy="472" r="0.9"/><circle cx="978" cy="531" r="1.1"/><circle cx="115" cy="540" r="1.0"/><circle cx="756" cy="537" r="1.1"/><circle cx="242" cy="475" r="1.4"/><circle cx="835" cy="537" r="0.8"/><circle cx="566" cy="536" r="1.7"/><circle cx="506" cy="496" r="1.3"/><circle cx="574" cy="509" r="1.8"/><circle cx="787" cy="534" r="1.9"/><circle cx="498" cy="486" r="0.9"/><circle cx="445" cy="519" r="1.9"/><circle cx="124" cy="474" r="1.3"/><circle cx="828" cy="483" r="0.7"/><circle cx="525" cy="565" r="1.5"/><circle cx="36" cy="488" r="0.9"/><circle cx="419" cy="467" r="1.0"/><circle cx="261" cy="542" r="1.2"/><circle cx="259" cy="472" r="0.9"/><circle cx="940" cy="554" r="0.8"/><circle cx="129" cy="462" r="0.6"/><circle cx="636" cy="474" r="2.0"/><circle cx="273" cy="509" r="1.2"/><circle cx="567" cy="486" r="1.6"/><circle cx="508" cy="502" r="1.6"/><circle cx="887" cy="514" r="0.7"/><circle cx="572" cy="536" r="1.9"/><circle cx="58" cy="562" r="0.8"/><circle cx="554" cy="506" r="1.2"/><circle cx="556" cy="508" r="1.5"/><circle cx="889" cy="545" r="1.7"/><circle cx="865" cy="532" r="1.4"/><circle cx="265" cy="531" r="1.7"/><circle cx="318" cy="503" r="1.3"/><circle cx="742" cy="510" r="1.0"/><circle cx="749" cy="483" r="1.6"/><circle cx="22" cy="482" r="1.9"/><circle cx="167" cy="517" r="0.7"/><circle cx="992" cy="485" r="0.7"/><circle cx="249" cy="505" r="1.5"/><circle cx="855" cy="532" r="1.2"/><circle cx="112" cy="567" r="0.9"/><circle cx="717" cy="487" r="1.3"/><circle cx="862" cy="552" r="0.8"/><circle cx="284" cy="552" r="1.0"/><circle cx="84" cy="515" r="1.4"/><circle cx="821" cy="544" r="1.5"/><circle cx="245" cy="506" r="1.8"/><circle cx="281" cy="489" r="0.7"/><circle cx="922" cy="549" r="1.0"/><circle cx="447" cy="469" r="0.7"/><circle cx="150" cy="520" r="1.7"/><circle cx="535" cy="466" r="1.0"/><circle cx="470" cy="493" r="0.8"/><circle cx="287" cy="538" r="1.9"/><circle cx="581" cy="504" r="1.3"/><circle cx="680" cy="486" r="1.5"/><circle cx="337" cy="465" r="1.9"/><circle cx="673" cy="462" r="1.8"/><circle cx="226" cy="548" r="1.3"/><circle cx="170" cy="521" r="1.5"/><circle cx="515" cy="512" r="0.7"/><circle cx="886" cy="526" r="1.5"/><circle cx="171" cy="553" r="1.1"/><circle cx="119" cy="527" r="0.9"/><circle cx="623" cy="494" r="0.8"/><circle cx="425" cy="493" r="1.3"/><circle cx="489" cy="510" r="1.4"/><circle cx="619" cy="481" r="1.7"/><circle cx="163" cy="461" r="1.5"/><circle cx="657" cy="550" r="1.5"/><circle cx="433" cy="484" r="0.9"/><circle cx="489" cy="564" r="1.4"/><circle cx="747" cy="561" r="0.9"/><circle cx="460" cy="559" r="1.1"/><circle cx="125" cy="487" r="1.5"/><circle cx="557" cy="552" r="2.0"/><circle cx="139" cy="492" r="1.5"/><circle cx="875" cy="547" r="1.9"/><circle cx="473" cy="541" r="0.8"/><circle cx="431" cy="554" r="0.7"/><circle cx="5" cy="530" r="1.9"/><circle cx="800" cy="521" r="0.7"/><circle cx="722" cy="554" r="0.9"/><circle cx="584" cy="476" r="1.0"/><circle cx="774" cy="565" r="1.3"/><circle cx="448" cy="511" r="0.8"/><circle cx="755" cy="542" r="1.7"/><circle cx="856" cy="460" r="1.0"/><circle cx="72" cy="508" r="1.5"/><circle cx="822" cy="565" r="1.5"/><circle cx="123" cy="558" r="1.4"/><circle cx="974" cy="561" r="1.7"/><circle cx="331" cy="533" r="1.4"/><circle cx="831" cy="545" r="1.4"/><circle cx="267" cy="540" r="1.3"/><circle cx="332" cy="545" r="1.5"/><circle cx="550" cy="466" r="1.2"/><circle cx="775" cy="489" r="1.3"/><circle cx="224" cy="535" r="1.6"/><circle cx="139" cy="484" r="1.2"/><circle cx="670" cy="559" r="1.0"/><circle cx="611" cy="492" r="1.6"/><circle cx="982" cy="544" r="0.9"/><circle cx="513" cy="519" r="1.8"/><circle cx="487" cy="486" r="1.1"/><circle cx="987" cy="488" r="0.6"/><circle cx="388" cy="462" r="1.4"/><circle cx="145" cy="511" r="1.7"/><circle cx="635" cy="558" r="1.7"/><circle cx="980" cy="462" r="1.2"/><circle cx="667" cy="479" r="1.8"/><circle cx="941" cy="528" r="1.1"/><circle cx="921" cy="482" r="0.8"/><circle cx="238" cy="552" r="0.7"/><circle cx="156" cy="501" r="0.9"/><circle cx="542" cy="493" r="2.0"/><circle cx="806" cy="527" r="1.7"/><circle cx="2" cy="512" r="1.9"/><circle cx="109" cy="482" r="0.9"/><circle cx="381" cy="558" r="1.5"/><circle cx="447" cy="541" r="1.8"/><circle cx="180" cy="522" r="1.6"/><circle cx="106" cy="564" r="1.8"/><circle cx="968" cy="495" r="1.1"/><circle cx="754" cy="524" r="0.8"/><circle cx="408" cy="529" r="0.8"/><circle cx="222" cy="467" r="1.2"/><circle cx="157" cy="466" r="1.6"/><circle cx="402" cy="464" r="0.8"/><circle cx="78" cy="464" r="0.9"/><circle cx="300" cy="511" r="0.7"/><circle cx="918" cy="478" r="1.9"/><circle cx="609" cy="532" r="0.9"/><circle cx="650" cy="489" r="0.9"/><circle cx="435" cy="462" r="1.0"/><circle cx="175" cy="499" r="0.9"/><circle cx="159" cy="553" r="1.3"/><circle cx="938" cy="530" r="1.3"/><circle cx="543" cy="545" r="0.7"/><circle cx="301" cy="465" r="1.7"/><circle cx="410" cy="549" r="0.9"/><circle cx="944" cy="480" r="1.4"/><circle cx="637" cy="558" r="1.0"/><circle cx="646" cy="520" r="1.6"/><circle cx="67" cy="556" r="0.7"/><circle cx="592" cy="512" r="1.2"/><circle cx="890" cy="476" r="1.2"/><circle cx="701" cy="548" r="1.8"/><circle cx="279" cy="520" r="1.6"/><circle cx="585" cy="522" r="1.8"/><circle cx="486" cy="511" r="1.6"/><circle cx="854" cy="486" r="1.0"/><circle cx="298" cy="465" r="2.0"/><circle cx="500" cy="536" r="0.7"/><circle cx="133" cy="461" r="2.0"/><circle cx="687" cy="514" r="0.7"/><circle cx="872" cy="467" r="0.8"/><circle cx="803" cy="532" r="1.5"/><circle cx="419" cy="554" r="1.7"/><circle cx="512" cy="506" r="0.7"/><circle cx="122" cy="476" r="1.1"/><circle cx="703" cy="497" r="1.8"/><circle cx="66" cy="480" r="1.7"/><circle cx="500" cy="518" r="1.1"/><circle cx="232" cy="554" r="0.7"/><circle cx="58" cy="506" r="1.7"/><circle cx="271" cy="469" r="1.0"/><circle cx="755" cy="565" r="1.1"/><circle cx="938" cy="529" r="1.8"/><circle cx="903" cy="525" r="1.6"/><circle cx="560" cy="472" r="1.6"/><circle cx="161" cy="512" r="1.4"/><circle cx="236" cy="556" r="1.5"/><circle cx="881" cy="558" r="1.4"/><circle cx="149" cy="468" r="0.9"/><circle cx="921" cy="510" r="1.0"/><circle cx="558" cy="552" r="1.3"/><circle cx="76" cy="563" r="1.5"/><circle cx="416" cy="514" r="1.5"/><circle cx="669" cy="565" r="0.7"/><circle cx="504" cy="553" r="1.6"/><circle cx="445" cy="493" r="0.7"/><circle cx="14" cy="494" r="1.1"/><circle cx="702" cy="551" r="1.6"/><circle cx="978" cy="542" r="0.7"/><circle cx="25" cy="563" r="1.1"/><circle cx="562" cy="536" r="0.7"/><circle cx="724" cy="501" r="0.9"/><circle cx="59" cy="533" r="1.8"/><circle cx="862" cy="466" r="1.7"/><circle cx="681" cy="535" r="1.8"/><circle cx="410" cy="506" r="0.7"/><circle cx="125" cy="549" r="0.8"/><circle cx="794" cy="487" r="1.3"/><circle cx="756" cy="468" r="1.2"/><circle cx="747" cy="461" r="0.6"/><circle cx="913" cy="489" r="0.7"/><circle cx="365" cy="492" r="1.1"/><circle cx="977" cy="503" r="1.1"/></g><line x1="0" y1="460.0" x2="1000" y2="460.0" stroke="#D8D2C6" stroke-width="1" opacity="0.14"/><rect x="0" y="600.0" width="1000" height="400.0" fill="#2A2724"/><rect x="0" y="600.0" width="1000" height="400.0" fill="url(#ssroca)"/><polygon points="-10.9,566.7 -62.5,601.1 -113.6,569.1 -111.3,507.6 -62.5,481.1 -12.1,508.3" fill="none" stroke="#B4501F" stroke-width="1.1" opacity="0.03"/><polygon points="82.5,568.9 31.3,596.4 -20.2,567.8 -23.4,505.9 31.2,480.1 83.0,509.2" fill="none" stroke="#B4501F" stroke-width="1.1" opacity="0.03"/><polygon points="174.5,569.1 125.0,596.7 72.8,567.0 74.6,507.3 125.0,474.5 179.6,506.1" fill="none" stroke="#B4501F" stroke-width="1.1" opacity="0.03"/><polygon points="272.9,568.8 218.8,599.0 164.9,569.3 169.1,507.0 218.8,478.0 273.1,506.1" fill="none" stroke="#B4501F" stroke-width="1.1" opacity="0.03"/><polygon points="362.6,565.9 312.5,598.4 258.9,568.4 258.2,507.0 312.5,475.3 362.4,508.9" fill="none" stroke="#B4501F" stroke-width="1.1" opacity="0.03"/><polygon points="457.4,568.7 406.2,599.7 355.9,565.8 354.0,505.7 406.2,475.4 459.7,507.7" fill="none" stroke="#B4501F" stroke-width="1.1" opacity="0.03"/><polygon points="550.6,569.3 500.0,597.9 448.5,567.6 451.3,509.0 500.0,477.4 551.0,506.4" fill="none" stroke="#B4501F" stroke-width="1.1" opacity="0.03"/><polygon points="645.0,569.2 593.8,597.5 544.2,566.3 539.7,507.4 593.8,479.3 647.0,506.1" fill="none" stroke="#B4501F" stroke-width="1.1" opacity="0.03"/><polygon points="740.6,565.7 687.5,599.1 635.0,568.7 638.7,507.9 687.5,473.8 741.0,507.5" fill="none" stroke="#B4501F" stroke-width="1.1" opacity="0.03"/><polygon points="830.1,569.2 781.2,596.3 731.1,568.4 728.7,508.2 781.2,479.1 836.4,509.3" fill="none" stroke="#B4501F" stroke-width="1.1" opacity="0.03"/><polygon points="927.0,567.5 875.0,595.2 824.4,566.1 823.9,508.5 875.0,474.9 929.4,505.8" fill="none" stroke="#B4501F" stroke-width="1.1" opacity="0.03"/><polygon points="1021.1,566.7 968.8,595.4 918.7,565.6 916.2,506.9 968.8,474.6 1018.5,507.5" fill="none" stroke="#B4501F" stroke-width="1.1" opacity="0.03"/><polygon points="36.6,673.9 -15.6,703.0 -65.0,676.4 -69.1,614.0 -15.6,587.0 35.7,614.9" fill="none" stroke="#B4501F" stroke-width="1.1" opacity="0.19"/><polygon points="127.4,676.5 78.1,708.6 25.3,677.4 28.2,617.1 78.1,585.7 132.9,616.4" fill="none" stroke="#B4501F" stroke-width="1.1" opacity="0.19"/><polygon points="221.0,676.3 171.9,708.6 117.4,675.0 118.8,615.0 171.9,588.9 226.5,616.7" fill="none" stroke="#B4501F" stroke-width="1.1" opacity="0.19"/><polygon points="315.0,674.4 265.6,709.0 216.0,675.7 213.8,614.8 265.6,585.1 316.0,617.1" fill="none" stroke="#B4501F" stroke-width="1.1" opacity="0.19"/><polygon points="410.2,675.5 359.4,704.4 305.8,677.2 305.2,616.2 359.4,586.1 413.4,614.6" fill="none" stroke="#B4501F" stroke-width="1.1" opacity="0.19"/><polygon points="506.9,675.6 453.1,703.7 399.0,677.6 404.3,615.7 453.1,589.1 503.9,615.0" fill="none" stroke="#B4501F" stroke-width="1.1" opacity="0.19"/><polygon points="598.3,674.2 546.9,704.4 494.4,677.6 496.0,615.9 546.9,585.3 596.9,614.6" fill="none" stroke="#B4501F" stroke-width="1.1" opacity="0.19"/><polygon points="695.4,674.6 640.6,707.1 591.5,674.0 588.0,615.3 640.6,587.5 690.0,614.2" fill="none" stroke="#B4501F" stroke-width="1.1" opacity="0.19"/><polygon points="784.0,675.7 734.4,702.5 684.4,676.6 681.5,616.7 734.4,586.3 784.9,616.8" fill="none" stroke="#B4501F" stroke-width="1.1" opacity="0.19"/><polygon points="878.8,674.4 828.1,704.7 774.0,675.6 773.2,614.5 828.1,589.4 882.0,615.2" fill="none" stroke="#B4501F" stroke-width="1.1" opacity="0.19"/><polygon points="974.0,677.2 921.9,707.4 868.1,675.2 870.6,615.5 921.9,587.5 974.7,616.7" fill="none" stroke="#B4501F" stroke-width="1.1" opacity="0.19"/><polygon points="1064.7,677.1 1015.6,703.0 962.7,673.9 965.5,615.6 1015.6,589.2 1068.7,616.7" fill="none" stroke="#B4501F" stroke-width="1.1" opacity="0.19"/><polygon points="-7.7,783.6 -62.5,811.9 -115.3,785.0 -114.2,723.3 -62.5,695.0 -11.5,724.9" fill="none" stroke="#B4501F" stroke-width="1.1" opacity="0.35"/><polygon points="82.7,784.8 31.3,810.7 -17.7,782.4 -19.9,724.3 31.2,697.7 85.0,722.1" fill="none" stroke="#B4501F" stroke-width="1.1" opacity="0.35"/><polygon points="176.7,782.6 125.0,812.0 75.3,782.4 76.3,723.8 125.0,690.8 178.3,724.2" fill="none" stroke="#B4501F" stroke-width="1.1" opacity="0.35"/><polygon points="272.8,782.9 218.8,814.3 169.9,782.3 165.5,724.1 218.8,690.5 270.3,724.1" fill="none" stroke="#B4501F" stroke-width="1.1" opacity="0.35"/><polygon points="366.9,782.4 312.5,810.6 260.2,785.2 261.8,723.7 312.5,696.1 364.8,722.7" fill="none" stroke="#B4501F" stroke-width="1.1" opacity="0.35"/><polygon points="459.3,783.9 406.2,810.3 353.5,782.8 356.1,724.9 406.2,696.8 455.6,723.0" fill="none" stroke="#B4501F" stroke-width="1.1" opacity="0.35"/><polygon points="553.9,782.2 500.0,812.4 448.1,785.2 445.1,723.3 500.0,696.0 554.6,725.2" fill="none" stroke="#B4501F" stroke-width="1.1" opacity="0.35"/><polygon points="646.9,785.2 593.8,812.8 542.9,783.6 543.7,725.3 593.8,691.2 645.8,724.2" fill="none" stroke="#B4501F" stroke-width="1.1" opacity="0.35"/><polygon points="742.1,782.3 687.5,810.7 635.0,782.8 633.5,723.3 687.5,690.4 740.1,723.0" fill="none" stroke="#B4501F" stroke-width="1.1" opacity="0.35"/><polygon points="834.7,782.1 781.2,811.9 729.1,783.2 728.7,724.8 781.2,696.3 835.8,723.3" fill="none" stroke="#B4501F" stroke-width="1.1" opacity="0.35"/><polygon points="929.8,782.9 875.0,811.1 821.3,784.5 819.9,725.6 875.0,690.5 929.5,725.1" fill="none" stroke="#B4501F" stroke-width="1.1" opacity="0.35"/><polygon points="1023.0,784.5 968.8,812.5 919.1,784.3 914.1,724.3 968.8,697.2 1021.2,725.1" fill="none" stroke="#B4501F" stroke-width="1.1" opacity="0.35"/><polygon points="33.6,891.3 -15.6,921.6 -66.0,892.1 -70.6,830.8 -15.6,802.8 36.5,832.6" fill="none" stroke="#B4501F" stroke-width="1.1" opacity="0.51"/><polygon points="128.6,891.9 78.1,920.6 23.8,891.3 29.2,831.2 78.1,804.9 132.2,831.4" fill="none" stroke="#B4501F" stroke-width="1.1" opacity="0.51"/><polygon points="226.4,892.0 171.9,918.8 117.9,893.3 116.8,833.7 171.9,802.2 222.2,831.4" fill="none" stroke="#B4501F" stroke-width="1.1" opacity="0.51"/><polygon points="315.0,892.4 265.6,919.6 213.9,893.2 212.3,832.1 265.6,801.9 317.1,832.8" fill="none" stroke="#B4501F" stroke-width="1.1" opacity="0.51"/><polygon points="412.5,892.1 359.4,918.7 306.3,891.2 310.2,831.3 359.4,800.3 413.3,833.1" fill="none" stroke="#B4501F" stroke-width="1.1" opacity="0.51"/><polygon points="504.2,893.2 453.1,925.5 402.2,893.9 401.9,831.8 453.1,804.2 508.2,833.2" fill="none" stroke="#B4501F" stroke-width="1.1" opacity="0.51"/><polygon points="600.0,890.4 546.9,920.1 493.8,890.9 492.5,831.0 546.9,801.6 601.6,830.9" fill="none" stroke="#B4501F" stroke-width="1.1" opacity="0.51"/><polygon points="693.9,891.9 640.6,922.0 586.7,890.9 587.5,832.9 640.6,805.1 689.8,831.3" fill="none" stroke="#B4501F" stroke-width="1.1" opacity="0.51"/><polygon points="787.0,893.0 734.4,922.1 684.7,892.2 682.9,830.6 734.4,805.4 786.1,831.6" fill="none" stroke="#B4501F" stroke-width="1.1" opacity="0.51"/><polygon points="879.3,891.9 828.1,918.6 775.4,893.9 778.4,832.8 828.1,805.7 881.0,833.5" fill="none" stroke="#B4501F" stroke-width="1.1" opacity="0.51"/><polygon points="973.9,894.0 921.9,923.9 868.8,890.8 867.9,832.0 921.9,804.6 976.5,830.5" fill="none" stroke="#B4501F" stroke-width="1.1" opacity="0.51"/><polygon points="1066.9,891.4 1015.6,923.8 965.8,892.9 963.8,832.3 1015.6,799.2 1068.2,833.2" fill="none" stroke="#B4501F" stroke-width="1.1" opacity="0.51"/><polygon points="-7.6,1000.4 -62.5,1034.2 -114.9,998.6 -114.5,941.7 -62.5,912.2 -13.2,939.3" fill="none" stroke="#B4501F" stroke-width="1.1" opacity="0.68"/><polygon points="85.5,1001.2 31.3,1028.5 -23.0,1001.4 -23.3,940.6 31.2,912.2 86.0,941.6" fill="none" stroke="#B4501F" stroke-width="1.1" opacity="0.68"/><polygon points="178.5,999.6 125.0,1031.3 75.8,1000.9 75.0,939.1 125.0,913.8 178.3,939.7" fill="none" stroke="#B4501F" stroke-width="1.1" opacity="0.68"/><polygon points="272.6,1001.7 218.8,1031.4 165.7,999.7 168.9,938.7 218.8,910.3 269.3,939.3" fill="none" stroke="#B4501F" stroke-width="1.1" opacity="0.68"/><polygon points="364.0,1000.5 312.5,1030.9 262.7,1000.2 257.3,941.8 312.5,909.7 366.4,939.1" fill="none" stroke="#B4501F" stroke-width="1.1" opacity="0.68"/><polygon points="459.8,999.4 406.2,1026.9 355.4,999.0 356.9,941.3 406.2,907.5 460.1,940.7" fill="none" stroke="#B4501F" stroke-width="1.1" opacity="0.68"/><polygon points="552.3,1000.1 500.0,1031.7 450.0,1000.6 448.7,941.2 500.0,912.8 555.2,941.8" fill="none" stroke="#B4501F" stroke-width="1.1" opacity="0.68"/><polygon points="647.5,1000.3 593.8,1029.2 543.9,999.4 539.0,938.7 593.8,910.6 643.0,940.9" fill="none" stroke="#B4501F" stroke-width="1.1" opacity="0.68"/><polygon points="739.9,1000.6 687.5,1029.6 637.4,999.4 633.1,939.3 687.5,909.7 740.5,942.1" fill="none" stroke="#B4501F" stroke-width="1.1" opacity="0.68"/><polygon points="830.4,999.9 781.2,1027.2 729.1,1001.1 731.2,940.0 781.2,906.8 830.2,941.8" fill="none" stroke="#B4501F" stroke-width="1.1" opacity="0.68"/><polygon points="928.4,1000.6 875.0,1032.1 820.0,1001.0 825.3,938.6 875.0,908.8 928.9,939.6" fill="none" stroke="#B4501F" stroke-width="1.1" opacity="0.68"/><polygon points="1020.7,1001.4 968.8,1029.4 918.9,1002.0 919.1,939.4 968.8,911.1 1021.3,942.0" fill="none" stroke="#B4501F" stroke-width="1.1" opacity="0.68"/><line x1="0" y1="600.0" x2="1000" y2="600.0" stroke="#B4501F" stroke-width="2.6" opacity="0.95"/><polyline points="52.7,56.2 55.3,116.9 55.3,144.1 52.7,205.9 48.4,261.5 45.3,298.9 42.2,352.0 41.4,403.6" fill="none" stroke="#B4501F" stroke-width="2.3" opacity="0.45"/><polyline points="134.5,0.0 135.6,59.7 134.1,104.9 131.1,148.9 128.0,186.0" fill="none" stroke="#B4501F" stroke-width="2.2" opacity="0.50"/><polyline points="122.2,277.5 121.7,306.2 121.9,329.7 124.3,384.7 127.1,421.1 128.9,443.7" fill="none" stroke="#B4501F" stroke-width="2.7" opacity="0.57"/><polyline points="219.8,0.0 216.6,55.8 213.2,98.2" fill="none" stroke="#B4501F" stroke-width="1.8" opacity="0.36"/><polyline points="206.5,235.8 207.0,258.8 208.1,285.5 211.3,331.7 215.4,380.5 217.1,403.2 219.1,434.9 220.4,481.6 220.3,504.4" fill="none" stroke="#B4501F" stroke-width="2.3" opacity="0.40"/><polyline points="293.3,0.0 288.4,61.4 286.7,89.9 285.3,136.8 285.9,178.2 287.6,212.5 290.4,251.1 292.5,276.1 294.4,298.4" fill="none" stroke="#B4501F" stroke-width="2.9" opacity="0.61"/><polyline points="298.1,354.1 299.3,413.4 297.8,459.9" fill="none" stroke="#B4501F" stroke-width="1.9" opacity="0.46"/><polyline points="361.5,46.8 361.9,92.1 363.1,118.1 367.4,178.7 370.6,216.4 373.7,261.1" fill="none" stroke="#B4501F" stroke-width="2.4" opacity="0.44"/><polyline points="375.2,339.6 373.8,378.6" fill="none" stroke="#B4501F" stroke-width="3.0" opacity="0.49"/><polyline points="452.5,0.0 454.2,39.5 456.6,74.0 460.9,126.8 463.6,162.7 465.6,203.0" fill="none" stroke="#B4501F" stroke-width="2.4" opacity="0.37"/><polyline points="539.6,0.0 542.9,39.4 545.8,77.7" fill="none" stroke="#B4501F" stroke-width="2.2" opacity="0.35"/><polyline points="548.2,180.9 545.7,232.4 543.6,260.1 540.6,297.0" fill="none" stroke="#B4501F" stroke-width="2.9" opacity="0.42"/><polyline points="629.8,51.6 629.9,85.4 627.7,140.0 625.6,170.8 621.6,219.2 619.5,244.9" fill="none" stroke="#B4501F" stroke-width="2.4" opacity="0.60"/><polyline points="616.3,308.7 616.0,334.0" fill="none" stroke="#B4501F" stroke-width="3.0" opacity="0.45"/><polyline points="715.2,35.0 713.6,64.1 708.9,124.4 706.1,159.0 703.4,202.2 702.3,254.0" fill="none" stroke="#B4501F" stroke-width="2.8" opacity="0.39"/><polyline points="708.8,373.9 711.8,410.9 713.9,440.1" fill="none" stroke="#B4501F" stroke-width="2.9" opacity="0.51"/><polyline points="716.3,507.4 715.3,557.7" fill="none" stroke="#B4501F" stroke-width="2.6" opacity="0.44"/><polyline points="781.3,0.0 777.4,47.8 773.9,93.3 771.6,147.9" fill="none" stroke="#B4501F" stroke-width="1.7" opacity="0.37"/><polyline points="778.1,293.3 780.3,319.7 783.0,356.2" fill="none" stroke="#B4501F" stroke-width="2.1" opacity="0.54"/><polyline points="871.3,0.0 869.4,30.9 868.4,60.4 868.1,90.7 869.5,137.1 870.9,159.6 875.5,218.3 879.4,269.0 881.4,306.5 882.1,334.6" fill="none" stroke="#B4501F" stroke-width="2.5" opacity="0.56"/><polyline points="944.8,0.0 946.6,59.9 950.9,119.9" fill="none" stroke="#B4501F" stroke-width="1.7" opacity="0.51"/><polyline points="957.9,217.8 958.8,263.5 958.1,301.0 957.0,324.1" fill="none" stroke="#B4501F" stroke-width="2.7" opacity="0.50"/></svg>