<svg viewBox="0 0 240 240" xmlns="http://www.w3.org/2000/svg"><defs><radialGradient id="ssp" cx="50%" cy="50%" r="50%"><stop offset="0%" stop-color="#B4501F" stop-opacity="0.42"/><stop offset="55%" stop-color="#B4501F" stop-opacity="0.14"/><stop offset="100%" stop-color="#B4501F" stop-opacity="0"/></radialGradient></defs><ellipse cx="120" cy="212" rx="54" ry="8" fill="#141210" opacity="0.05"/><circle cx="120" cy="120" r="66" fill="url(#ssp)"/><circle cx="120" cy="120" r="74" fill="none" stroke="#141210" stroke-width="15"/><circle cx="120" cy="120" r="54" fill="none" stroke="#141210" stroke-width="7"/><line x1="136.0" y1="120.0" x2="170.0" y2="120.0" stroke="#B4501F" stroke-width="5" stroke-linecap="round"/><line x1="133.9" y1="128.0" x2="163.3" y2="145.0" stroke="#141210" stroke-width="5" stroke-linecap="round"/><line x1="128.0" y1="133.9" x2="145.0" y2="163.3" stroke="#141210" stroke-width="5" stroke-linecap="round"/><line x1="120.0" y1="136.0" x2="120.0" y2="170.0" stroke="#B4501F" stroke-width="5" stroke-linecap="round"/><line x1="112.0" y1="133.9" x2="95.0" y2="163.3" stroke="#141210" stroke-width="5" stroke-linecap="round"/><line x1="106.1" y1="128.0" x2="76.7" y2="145.0" stroke="#141210" stroke-width="5" stroke-linecap="round"/><line x1="104.0" y1="120.0" x2="70.0" y2="120.0" stroke="#B4501F" stroke-width="5" stroke-linecap="round"/><line x1="106.1" y1="112.0" x2="76.7" y2="95.0" stroke="#141210" stroke-width="5" stroke-linecap="round"/><line x1="112.0" y1="106.1" x2="95.0" y2="76.7" stroke="#141210" stroke-width="5" stroke-linecap="round"/><line x1="120.0" y1="104.0" x2="120.0" y2="70.0" stroke="#B4501F" stroke-width="5" stroke-linecap="round"/><line x1="128.0" y1="106.1" x2="145.0" y2="76.7" stroke="#141210" stroke-width="5" stroke-linecap="round"/><line x1="133.9" y1="112.0" x2="163.3" y2="95.0" stroke="#141210" stroke-width="5" stroke-linecap="round"/><circle cx="120" cy="120" r="12" fill="#141210"/><circle cx="179.2" cy="144.3" r="3.4" fill="#141210"/><circle cx="144.7" cy="179.1" r="3.4" fill="#141210"/><circle cx="95.7" cy="179.2" r="3.4" fill="#141210"/><circle cx="60.9" cy="144.7" r="3.4" fill="#141210"/><circle cx="60.8" cy="95.7" r="3.4" fill="#141210"/><circle cx="95.3" cy="60.9" r="3.4" fill="#141210"/><circle cx="144.3" cy="60.8" r="3.4" fill="#141210"/><circle cx="179.1" cy="95.3" r="3.4" fill="#141210"/><rect x="109" y="48" width="22" height="9" rx="4.5" fill="#B4501F"/><circle cx="60" cy="150" r="2.2" fill="#141210"/><circle cx="186" cy="172" r="2.4" fill="#141210"/></svg>