<svg viewBox="0 0 240 240" xmlns="http://www.w3.org/2000/svg"><defs><radialGradient id="ssb" cx="50%" cy="50%" r="50%"><stop offset="0%" stop-color="#B4501F" stop-opacity="0.42"/><stop offset="55%" stop-color="#B4501F" stop-opacity="0.14"/><stop offset="100%" stop-color="#B4501F" stop-opacity="0"/></radialGradient></defs><ellipse cx="120" cy="212" rx="54" ry="8" fill="#141210" opacity="0.05"/><circle cx="120" cy="128" r="60" fill="url(#ssb)"/><rect x="58" y="114" width="24" height="92" fill="#141210"/><polygon points="58,114 82,114 74,105 66,105" fill="#B4501F"/><line x1="58" y1="153" x2="82" y2="153" stroke="#EAE6DF" stroke-width="1.4" opacity="0.35"/><rect x="86" y="78" width="24" height="128" fill="#141210"/><polygon points="86,78 110,78 102,69 94,69" fill="#B4501F"/><line x1="86" y1="132" x2="110" y2="132" stroke="#EAE6DF" stroke-width="1.4" opacity="0.35"/><rect x="116" y="56" width="24" height="150" fill="#141210"/><polygon points="116,56 140,56 132,47 124,47" fill="#B4501F"/><line x1="116" y1="119" x2="140" y2="119" stroke="#EAE6DF" stroke-width="1.4" opacity="0.35"/><rect x="146" y="90" width="24" height="116" fill="#141210"/><polygon points="146,90 170,90 162,81 154,81" fill="#B4501F"/><line x1="146" y1="139" x2="170" y2="139" stroke="#EAE6DF" stroke-width="1.4" opacity="0.35"/><rect x="174" y="68" width="24" height="138" fill="#141210"/><polygon points="174,68 198,68 190,59 182,59" fill="#B4501F"/><line x1="174" y1="126" x2="198" y2="126" stroke="#EAE6DF" stroke-width="1.4" opacity="0.35"/><rect x="46" y="206" width="150" height="6" rx="3" fill="#B4501F"/><circle cx="60" cy="150" r="2.2" fill="#141210"/><circle cx="186" cy="172" r="2.4" fill="#141210"/></svg>