<svg viewBox="0 0 240 240" xmlns="http://www.w3.org/2000/svg"><defs><linearGradient id="bsluz" x1="0" y1="1" x2="0" y2="0"><stop offset="0%" stop-color="#B4501F" stop-opacity="0.9"/><stop offset="45%" stop-color="#B4501F" stop-opacity="0.28"/><stop offset="100%" stop-color="#2A2724" stop-opacity="0"/></linearGradient></defs><rect width="240" height="240" fill="#2A2724"/><rect width="240" height="240" fill="url(#bsluz)"/><polygon points="-2.6,-9.4 -18.5,-1.3 -34.2,-9.2 -33.5,-27.2 -18.5,-36.3 -3.1,-27.3" fill="none" stroke="#B4501F" stroke-width="1" opacity="0.06"/><polygon points="24.0,-9.5 9.2,-0.8 -6.3,-9.3 -6.5,-27.6 9.2,-36.7 24.8,-27.7" fill="none" stroke="#B4501F" stroke-width="1" opacity="0.06"/><polygon points="53.1,-10.0 36.9,-1.0 21.2,-9.3 20.9,-27.8 36.9,-37.0 52.4,-27.2" fill="none" stroke="#B4501F" stroke-width="1" opacity="0.06"/><polygon points="79.6,-9.5 64.6,-0.6 48.8,-9.9 48.4,-27.4 64.6,-36.8 80.6,-27.3" fill="none" stroke="#B4501F" stroke-width="1" opacity="0.06"/><polygon points="107.2,-9.5 92.3,-0.7 76.0,-9.7 76.3,-27.1 92.3,-36.1 107.4,-27.3" fill="none" stroke="#B4501F" stroke-width="1" opacity="0.06"/><polygon points="136.2,-9.4 120.0,0.0 104.5,-9.9 105.1,-27.6 120.0,-35.8 136.3,-27.2" fill="none" stroke="#B4501F" stroke-width="1" opacity="0.06"/><polygon points="163.7,-9.7 147.7,-0.5 132.9,-9.3 132.5,-27.4 147.7,-37.3 163.1,-27.6" fill="none" stroke="#B4501F" stroke-width="1" opacity="0.06"/><polygon points="190.9,-9.4 175.4,0.4 160.4,-9.4 160.6,-27.0 175.4,-36.8 190.2,-27.2" fill="none" stroke="#B4501F" stroke-width="1" opacity="0.06"/><polygon points="217.9,-9.1 203.1,-0.0 187.3,-9.3 188.3,-27.0 203.1,-36.5 219.1,-27.4" fill="none" stroke="#B4501F" stroke-width="1" opacity="0.06"/><polygon points="245.9,-9.4 230.8,-0.6 215.2,-9.7 214.9,-27.1 230.8,-35.8 246.6,-27.4" fill="none" stroke="#B4501F" stroke-width="1" opacity="0.06"/><polygon points="274.5,-9.4 258.5,-0.6 243.7,-9.1 242.5,-27.7 258.5,-35.7 274.6,-27.0" fill="none" stroke="#B4501F" stroke-width="1" opacity="0.06"/><polygon points="10.6,22.2 -4.6,30.8 -19.7,22.5 -19.6,4.6 -4.6,-3.5 11.5,4.3" fill="none" stroke="#B4501F" stroke-width="1" opacity="0.13"/><polygon points="39.0,22.7 23.1,30.8 8.2,22.7 8.3,4.4 23.1,-5.2 37.9,4.7" fill="none" stroke="#B4501F" stroke-width="1" opacity="0.13"/><polygon points="66.7,22.3 50.8,30.8 36.0,22.5 36.0,4.6 50.8,-4.2 66.5,4.1" fill="none" stroke="#B4501F" stroke-width="1" opacity="0.13"/><polygon points="93.5,22.6 78.5,31.4 63.2,22.2 63.1,4.5 78.5,-4.0 94.5,4.3" fill="none" stroke="#B4501F" stroke-width="1" opacity="0.13"/><polygon points="121.5,22.5 106.2,32.3 90.7,22.1 90.2,4.2 106.2,-5.3 121.3,4.5" fill="none" stroke="#B4501F" stroke-width="1" opacity="0.13"/><polygon points="149.3,22.6 133.8,31.8 118.4,22.4 118.0,4.8 133.8,-5.3 149.2,4.7" fill="none" stroke="#B4501F" stroke-width="1" opacity="0.13"/><polygon points="177.8,22.9 161.5,30.7 145.5,22.2 145.8,4.2 161.5,-3.6 177.2,4.9" fill="none" stroke="#B4501F" stroke-width="1" opacity="0.13"/><polygon points="205.3,22.2 189.2,31.2 173.6,22.8 174.2,4.2 189.2,-5.3 205.0,4.8" fill="none" stroke="#B4501F" stroke-width="1" opacity="0.13"/><polygon points="232.4,22.7 216.9,31.4 201.6,22.7 202.1,4.4 216.9,-4.8 231.8,4.8" fill="none" stroke="#B4501F" stroke-width="1" opacity="0.13"/><polygon points="259.8,22.3 244.6,32.1 229.8,22.5 228.4,4.3 244.6,-4.8 260.6,4.2" fill="none" stroke="#B4501F" stroke-width="1" opacity="0.13"/><polygon points="287.9,22.4 272.3,31.6 257.2,22.3 256.8,5.0 272.3,-3.9 287.8,4.8" fill="none" stroke="#B4501F" stroke-width="1" opacity="0.13"/><polygon points="-2.6,54.8 -18.5,64.1 -34.6,54.5 -34.4,36.9 -18.5,26.7 -2.6,36.1" fill="none" stroke="#B4501F" stroke-width="1" opacity="0.20"/><polygon points="24.4,54.1 9.2,62.5 -6.4,54.6 -5.8,36.1 9.2,28.1 25.1,37.0" fill="none" stroke="#B4501F" stroke-width="1" opacity="0.20"/><polygon points="52.4,54.6 36.9,62.9 20.9,54.5 21.3,36.6 36.9,28.4 52.0,36.3" fill="none" stroke="#B4501F" stroke-width="1" opacity="0.20"/><polygon points="79.8,54.7 64.6,63.2 48.6,54.6 48.8,36.5 64.6,26.8 80.7,36.8" fill="none" stroke="#B4501F" stroke-width="1" opacity="0.20"/><polygon points="108.4,54.5 92.3,63.5 76.7,54.4 76.1,36.3 92.3,28.0 107.6,36.1" fill="none" stroke="#B4501F" stroke-width="1" opacity="0.20"/><polygon points="135.6,54.6 120.0,64.0 104.9,54.2 104.3,36.5 120.0,27.5 136.2,36.4" fill="none" stroke="#B4501F" stroke-width="1" opacity="0.20"/><polygon points="162.6,54.6 147.7,64.3 132.1,54.8 131.7,36.1 147.7,27.6 162.5,36.4" fill="none" stroke="#B4501F" stroke-width="1" opacity="0.20"/><polygon points="190.5,54.2 175.4,63.7 160.5,54.5 160.7,37.0 175.4,27.2 190.8,36.4" fill="none" stroke="#B4501F" stroke-width="1" opacity="0.20"/><polygon points="219.1,54.5 203.1,63.4 187.1,54.6 187.4,36.5 203.1,27.3 219.2,36.2" fill="none" stroke="#B4501F" stroke-width="1" opacity="0.20"/><polygon points="246.5,54.3 230.8,63.6 215.6,54.7 215.7,37.0 230.8,28.1 246.1,36.6" fill="none" stroke="#B4501F" stroke-width="1" opacity="0.20"/><polygon points="273.3,54.4 258.5,62.6 243.2,54.6 242.3,36.4 258.5,27.4 273.8,36.4" fill="none" stroke="#B4501F" stroke-width="1" opacity="0.20"/><polygon points="11.1,86.7 -4.6,95.9 -19.7,86.2 -20.0,68.7 -4.6,59.8 11.3,68.5" fill="none" stroke="#B4501F" stroke-width="1" opacity="0.28"/><polygon points="38.2,86.0 23.1,95.8 7.3,86.0 8.3,68.7 23.1,60.1 39.3,68.6" fill="none" stroke="#B4501F" stroke-width="1" opacity="0.28"/><polygon points="66.7,86.8 50.8,95.9 35.1,86.4 34.8,68.8 50.8,59.4 65.9,68.9" fill="none" stroke="#B4501F" stroke-width="1" opacity="0.28"/><polygon points="94.1,86.6 78.5,95.2 62.8,86.2 63.2,68.8 78.5,59.6 94.4,68.5" fill="none" stroke="#B4501F" stroke-width="1" opacity="0.28"/><polygon points="122.2,86.6 106.2,95.6 90.4,86.1 90.7,68.8 106.2,59.5 122.2,68.6" fill="none" stroke="#B4501F" stroke-width="1" opacity="0.28"/><polygon points="149.9,86.0 133.8,95.1 118.8,86.4 118.7,68.3 133.8,59.0 149.9,68.9" fill="none" stroke="#B4501F" stroke-width="1" opacity="0.28"/><polygon points="176.6,86.8 161.5,96.2 145.3,86.4 146.4,68.9 161.5,60.4 177.2,68.9" fill="none" stroke="#B4501F" stroke-width="1" opacity="0.28"/><polygon points="204.2,86.2 189.2,94.8 173.9,86.8 173.9,68.2 189.2,60.2 204.5,68.2" fill="none" stroke="#B4501F" stroke-width="1" opacity="0.28"/><polygon points="232.6,86.3 216.9,95.7 201.6,86.7 201.9,68.1 216.9,59.0 232.5,68.3" fill="none" stroke="#B4501F" stroke-width="1" opacity="0.28"/><polygon points="259.7,86.4 244.6,95.1 229.0,86.8 229.2,68.7 244.6,58.8 259.6,68.6" fill="none" stroke="#B4501F" stroke-width="1" opacity="0.28"/><polygon points="288.1,86.2 272.3,96.1 257.1,86.4 257.5,68.4 272.3,60.3 288.0,68.5" fill="none" stroke="#B4501F" stroke-width="1" opacity="0.28"/><polygon points="-2.5,118.1 -18.5,128.0 -34.5,118.3 -33.4,100.4 -18.5,91.5 -3.6,100.8" fill="none" stroke="#B4501F" stroke-width="1" opacity="0.35"/><polygon points="24.5,118.3 9.2,126.6 -6.7,118.1 -6.4,100.1 9.2,90.9 25.1,100.3" fill="none" stroke="#B4501F" stroke-width="1" opacity="0.35"/><polygon points="52.4,118.0 36.9,128.1 22.1,118.4 21.8,100.2 36.9,91.7 52.8,100.7" fill="none" stroke="#B4501F" stroke-width="1" opacity="0.35"/><polygon points="79.4,118.2 64.6,126.6 48.6,118.3 49.4,100.3 64.6,91.4 80.5,100.4" fill="none" stroke="#B4501F" stroke-width="1" opacity="0.35"/><polygon points="107.1,118.8 92.3,127.3 76.9,118.5 77.0,100.7 92.3,92.3 108.4,100.9" fill="none" stroke="#B4501F" stroke-width="1" opacity="0.35"/><polygon points="135.2,118.7 120.0,128.0 105.3,118.2 104.5,100.4 120.0,91.6 136.3,100.6" fill="none" stroke="#B4501F" stroke-width="1" opacity="0.35"/><polygon points="163.7,118.5 147.7,127.8 132.8,118.6 131.9,100.1 147.7,92.1 163.9,100.8" fill="none" stroke="#B4501F" stroke-width="1" opacity="0.35"/><polygon points="190.6,118.2 175.4,127.2 160.0,118.4 159.3,100.1 175.4,91.8 190.5,100.3" fill="none" stroke="#B4501F" stroke-width="1" opacity="0.35"/><polygon points="219.2,118.4 203.1,127.0 187.4,118.0 187.7,100.6 203.1,91.9 218.6,100.6" fill="none" stroke="#B4501F" stroke-width="1" opacity="0.35"/><polygon points="245.8,118.1 230.8,127.9 215.4,118.2 214.9,100.4 230.8,90.8 246.4,100.3" fill="none" stroke="#B4501F" stroke-width="1" opacity="0.35"/><polygon points="274.0,118.0 258.5,127.9 242.3,118.2 243.5,100.5 258.5,90.8 273.4,100.1" fill="none" stroke="#B4501F" stroke-width="1" opacity="0.35"/><polygon points="11.7,150.8 -4.6,159.5 -19.9,150.6 -19.5,132.2 -4.6,124.3 10.3,132.9" fill="none" stroke="#B4501F" stroke-width="1" opacity="0.42"/><polygon points="38.3,150.2 23.1,159.1 7.2,150.1 7.9,132.3 23.1,122.6 38.2,132.2" fill="none" stroke="#B4501F" stroke-width="1" opacity="0.42"/><polygon points="67.0,150.2 50.8,159.3 35.0,150.8 35.8,132.2 50.8,124.4 65.8,132.6" fill="none" stroke="#B4501F" stroke-width="1" opacity="0.42"/><polygon points="94.6,150.0 78.5,159.7 62.7,150.4 62.2,132.6 78.5,123.9 93.3,132.8" fill="none" stroke="#B4501F" stroke-width="1" opacity="0.42"/><polygon points="121.3,150.5 106.2,159.6 90.6,150.3 90.1,132.4 106.2,122.9 122.1,132.8" fill="none" stroke="#B4501F" stroke-width="1" opacity="0.42"/><polygon points="149.3,150.3 133.8,160.2 118.2,149.9 118.9,132.0 133.8,123.6 150.1,132.9" fill="none" stroke="#B4501F" stroke-width="1" opacity="0.42"/><polygon points="177.7,150.8 161.5,159.2 145.6,150.5 146.0,132.5 161.5,123.3 176.4,132.2" fill="none" stroke="#B4501F" stroke-width="1" opacity="0.42"/><polygon points="205.0,150.1 189.2,159.0 174.3,150.0 174.4,132.9 189.2,123.0 204.1,132.5" fill="none" stroke="#B4501F" stroke-width="1" opacity="0.42"/><polygon points="231.9,150.7 216.9,158.8 201.2,150.5 201.2,132.9 216.9,124.2 231.9,132.4" fill="none" stroke="#B4501F" stroke-width="1" opacity="0.42"/><polygon points="260.4,150.1 244.6,160.1 228.7,150.8 228.9,132.6 244.6,122.7 259.4,132.7" fill="none" stroke="#B4501F" stroke-width="1" opacity="0.42"/><polygon points="287.4,149.9 272.3,158.7 256.7,149.9 256.3,132.6 272.3,123.9 287.1,132.7" fill="none" stroke="#B4501F" stroke-width="1" opacity="0.42"/><polygon points="-2.3,182.2 -18.5,191.6 -33.9,182.0 -34.4,164.6 -18.5,154.8 -2.4,164.5" fill="none" stroke="#B4501F" stroke-width="1" opacity="0.50"/><polygon points="24.2,182.2 9.2,191.0 -5.6,182.1 -5.8,164.6 9.2,155.8 24.8,164.2" fill="none" stroke="#B4501F" stroke-width="1" opacity="0.50"/><polygon points="52.4,182.6 36.9,191.8 21.6,182.8 21.3,164.4 36.9,155.2 52.0,164.7" fill="none" stroke="#B4501F" stroke-width="1" opacity="0.50"/><polygon points="79.9,182.6 64.6,191.5 48.9,182.1 48.4,164.0 64.6,155.2 79.6,164.2" fill="none" stroke="#B4501F" stroke-width="1" opacity="0.50"/><polygon points="107.2,182.0 92.3,190.5 77.5,182.0 76.6,164.6 92.3,156.3 107.2,164.3" fill="none" stroke="#B4501F" stroke-width="1" opacity="0.50"/><polygon points="135.9,182.4 120.0,192.0 104.5,182.5 104.3,164.8 120.0,154.9 135.0,164.3" fill="none" stroke="#B4501F" stroke-width="1" opacity="0.50"/><polygon points="163.1,182.3 147.7,190.6 131.5,181.9 131.5,164.4 147.7,155.3 163.2,164.5" fill="none" stroke="#B4501F" stroke-width="1" opacity="0.50"/><polygon points="191.4,181.9 175.4,190.7 159.9,182.1 160.6,164.4 175.4,155.3 190.3,164.2" fill="none" stroke="#B4501F" stroke-width="1" opacity="0.50"/><polygon points="218.6,182.5 203.1,192.1 187.7,182.8 187.9,164.8 203.1,156.4 218.7,164.5" fill="none" stroke="#B4501F" stroke-width="1" opacity="0.50"/><polygon points="246.5,181.9 230.8,190.4 214.9,182.1 215.3,164.2 230.8,155.7 245.8,164.3" fill="none" stroke="#B4501F" stroke-width="1" opacity="0.50"/><polygon points="274.7,182.1 258.5,190.8 242.3,182.8 243.4,164.8 258.5,154.7 274.8,164.3" fill="none" stroke="#B4501F" stroke-width="1" opacity="0.50"/><polygon points="10.7,213.9 -4.6,223.3 -20.6,214.7 -20.7,196.2 -4.6,186.8 10.3,196.7" fill="none" stroke="#B4501F" stroke-width="1" opacity="0.57"/><polygon points="39.4,214.4 23.1,222.8 8.0,214.0 6.8,196.9 23.1,187.0 37.8,196.8" fill="none" stroke="#B4501F" stroke-width="1" opacity="0.57"/><polygon points="65.6,214.0 50.8,223.1 35.0,214.3 34.5,196.2 50.8,188.1 66.9,196.4" fill="none" stroke="#B4501F" stroke-width="1" opacity="0.57"/><polygon points="94.4,214.4 78.5,222.9 63.0,214.4 63.2,196.0 78.5,187.9 94.7,196.1" fill="none" stroke="#B4501F" stroke-width="1" opacity="0.57"/><polygon points="121.5,214.3 106.2,222.8 91.0,214.0 90.9,196.1 106.2,186.9 121.3,196.4" fill="none" stroke="#B4501F" stroke-width="1" opacity="0.57"/><polygon points="149.4,214.3 133.8,224.0 118.8,214.1 118.3,196.4 133.8,187.5 148.9,196.8" fill="none" stroke="#B4501F" stroke-width="1" opacity="0.57"/><polygon points="177.5,214.6 161.5,222.8 146.3,214.0 146.1,196.4 161.5,187.2 177.0,196.0" fill="none" stroke="#B4501F" stroke-width="1" opacity="0.57"/><polygon points="205.2,214.5 189.2,223.8 174.2,214.8 173.6,196.7 189.2,188.2 205.3,196.6" fill="none" stroke="#B4501F" stroke-width="1" opacity="0.57"/><polygon points="233.2,214.6 216.9,222.7 201.8,213.9 200.8,196.5 216.9,188.0 231.6,196.6" fill="none" stroke="#B4501F" stroke-width="1" opacity="0.57"/><polygon points="260.5,214.3 244.6,223.1 228.5,214.1 229.5,196.5 244.6,187.7 260.4,196.5" fill="none" stroke="#B4501F" stroke-width="1" opacity="0.57"/><polygon points="288.0,214.1 272.3,222.5 256.1,214.1 256.9,196.5 272.3,187.5 288.0,196.6" fill="none" stroke="#B4501F" stroke-width="1" opacity="0.57"/><polygon points="-3.2,246.1 -18.5,256.0 -33.3,245.9 -33.3,228.6 -18.5,219.9 -2.6,228.5" fill="none" stroke="#B4501F" stroke-width="1" opacity="0.64"/><polygon points="25.0,245.9 9.2,255.5 -6.2,246.0 -6.4,228.7 9.2,219.0 24.1,228.3" fill="none" stroke="#B4501F" stroke-width="1" opacity="0.64"/><polygon points="52.8,246.7 36.9,255.5 21.6,246.5 21.7,228.6 36.9,220.0 52.9,228.3" fill="none" stroke="#B4501F" stroke-width="1" opacity="0.64"/><polygon points="79.5,246.2 64.6,255.0 49.2,246.3 48.5,228.5 64.6,219.0 79.5,228.4" fill="none" stroke="#B4501F" stroke-width="1" opacity="0.64"/><polygon points="108.2,246.2 92.3,254.4 77.3,246.5 76.7,228.4 92.3,219.0 108.2,228.7" fill="none" stroke="#B4501F" stroke-width="1" opacity="0.64"/><polygon points="135.5,246.7 120.0,255.9 105.1,245.9 104.4,228.0 120.0,220.3 135.2,228.8" fill="none" stroke="#B4501F" stroke-width="1" opacity="0.64"/><polygon points="163.6,246.2 147.7,254.6 131.7,246.2 132.1,228.5 147.7,219.9 162.9,228.3" fill="none" stroke="#B4501F" stroke-width="1" opacity="0.64"/><polygon points="190.9,246.2 175.4,255.8 159.9,246.4 159.4,228.5 175.4,219.0 190.3,228.7" fill="none" stroke="#B4501F" stroke-width="1" opacity="0.64"/><polygon points="218.2,246.0 203.1,254.4 187.7,246.7 188.4,228.3 203.1,219.3 218.7,228.8" fill="none" stroke="#B4501F" stroke-width="1" opacity="0.64"/><polygon points="246.8,246.4 230.8,255.1 214.6,246.0 215.5,228.4 230.8,219.9 245.8,228.6" fill="none" stroke="#B4501F" stroke-width="1" opacity="0.64"/><polygon points="274.2,246.5 258.5,255.3 243.4,246.7 242.3,228.3 258.5,220.1 274.0,228.0" fill="none" stroke="#B4501F" stroke-width="1" opacity="0.64"/></svg>